<svg viewBox="0 0 1080 720" xmlns="http://www.w3.org/2000/svg">
<circle cx="621.34735" cy="542.7091" fill="transparent" r="5" stroke="rgb(0,0,0)" stroke-width="2"/>
<circle cx="621.34735" cy="177.29091" fill="transparent" r="5" stroke="rgb(0,0,0)" stroke-width="2"/>
<circle cx="628.1678" cy="238.64746" fill="transparent" r="5" stroke="rgb(0,0,0)" stroke-width="2"/>
<circle cx="422.44293" cy="198.1966" fill="transparent" r="5" stroke="rgb(0,0,0)" stroke-width="2"/>
<circle cx="498.41766" cy="164.37048" fill="transparent" r="5" stroke="rgb(0,0,0)" stroke-width="2"/>
<circle cx="689.1783" cy="344.32074" fill="transparent" r="5" stroke="rgb(0,0,0)" stroke-width="2"/>
<circle cx="428.52826" cy="259.6304" fill="transparent" r="5" stroke="rgb(0,0,0)" stroke-width="2"/>
<circle cx="366.79492" cy="260" fill="transparent" r="5" stroke="rgb(0,0,0)" stroke-width="2"/>
<circle cx="410.0962" cy="285" fill="transparent" r="5" stroke="rgb(0,0,0)" stroke-width="2"/>
<circle cx="730.2113" cy="421.8034" fill="transparent" r="5" stroke="rgb(0,0,0)" stroke-width="2"/>
<circle cx="688.62897" cy="493.8261" fill="transparent" r="5" stroke="rgb(0,0,0)" stroke-width="2"/>
<circle cx="498.41766" cy="555.6295" fill="transparent" r="5" stroke="rgb(0,0,0)" stroke-width="2"/>
<circle cx="422.44293" cy="521.8034" fill="transparent" r="5" stroke="rgb(0,0,0)" stroke-width="2"/>
<circle cx="540" cy="160" fill="transparent" r="5" stroke="rgb(0,0,0)" stroke-width="2"/>
<circle cx="428.52826" cy="460.3696" fill="transparent" r="5" stroke="rgb(0,0,0)" stroke-width="2"/>
<circle cx="738.90436" cy="380.9057" fill="transparent" r="5" stroke="rgb(0,0,0)" stroke-width="2"/>
<circle cx="540" cy="510" fill="transparent" r="5" stroke="rgb(0,0,0)" stroke-width="2"/>
<circle cx="508.81323" cy="506.72214" fill="transparent" r="5" stroke="rgb(0,0,0)" stroke-width="2"/>
<circle cx="669.9038" cy="435" fill="transparent" r="5" stroke="rgb(0,0,0)" stroke-width="2"/>
<circle cx="391.37103" cy="493.8261" fill="transparent" r="5" stroke="rgb(0,0,0)" stroke-width="2"/>
<circle cx="390.82172" cy="375.67926" fill="transparent" r="5" stroke="rgb(0,0,0)" stroke-width="2"/>
<circle cx="391.37103" cy="226.17387" fill="transparent" r="5" stroke="rgb(0,0,0)" stroke-width="2"/>
<circle cx="458.65268" cy="542.7091" fill="transparent" r="5" stroke="rgb(0,0,0)" stroke-width="2"/>
<circle cx="410.0962" cy="435" fill="transparent" r="5" stroke="rgb(0,0,0)" stroke-width="2"/>
<circle cx="713.2051" cy="260" fill="transparent" r="5" stroke="rgb(0,0,0)" stroke-width="2"/>
<circle cx="341.09564" cy="339.0943" fill="transparent" r="5" stroke="rgb(0,0,0)" stroke-width="2"/>
<circle cx="451.8322" cy="238.64746" fill="transparent" r="5" stroke="rgb(0,0,0)" stroke-width="2"/>
<circle cx="397.34152" cy="406.35254" fill="transparent" r="5" stroke="rgb(0,0,0)" stroke-width="2"/>
<circle cx="651.47174" cy="259.6304" fill="transparent" r="5" stroke="rgb(0,0,0)" stroke-width="2"/>
<circle cx="682.65845" cy="406.35254" fill="transparent" r="5" stroke="rgb(0,0,0)" stroke-width="2"/>
<circle cx="601.0105" cy="497.0318" fill="transparent" r="5" stroke="rgb(0,0,0)" stroke-width="2"/>
<circle cx="571.18677" cy="506.72214" fill="transparent" r="5" stroke="rgb(0,0,0)" stroke-width="2"/>
<circle cx="601.0105" cy="222.96819" fill="transparent" r="5" stroke="rgb(0,0,0)" stroke-width="2"/>
<circle cx="571.18677" cy="213.27786" fill="transparent" r="5" stroke="rgb(0,0,0)" stroke-width="2"/>
<circle cx="628.1678" cy="481.35254" fill="transparent" r="5" stroke="rgb(0,0,0)" stroke-width="2"/>
<circle cx="458.65268" cy="177.29091" fill="transparent" r="5" stroke="rgb(0,0,0)" stroke-width="2"/>
<circle cx="689.1783" cy="375.67926" fill="transparent" r="5" stroke="rgb(0,0,0)" stroke-width="2"/>
<circle cx="540" cy="560" fill="transparent" r="5" stroke="rgb(0,0,0)" stroke-width="2"/>
<circle cx="651.47174" cy="460.3696" fill="transparent" r="5" stroke="rgb(0,0,0)" stroke-width="2"/>
<circle cx="397.34152" cy="313.64746" fill="transparent" r="5" stroke="rgb(0,0,0)" stroke-width="2"/>
<circle cx="682.65845" cy="313.64746" fill="transparent" r="5" stroke="rgb(0,0,0)" stroke-width="2"/>
<circle cx="657.55707" cy="521.8034" fill="transparent" r="5" stroke="rgb(0,0,0)" stroke-width="2"/>
<circle cx="390.82172" cy="344.32074" fill="transparent" r="5" stroke="rgb(0,0,0)" stroke-width="2"/>
<circle cx="478.9895" cy="497.0318" fill="transparent" r="5" stroke="rgb(0,0,0)" stroke-width="2"/>
<circle cx="581.58234" cy="164.37048" fill="transparent" r="5" stroke="rgb(0,0,0)" stroke-width="2"/>
<circle cx="366.79492" cy="460" fill="transparent" r="5" stroke="rgb(0,0,0)" stroke-width="2"/>
<circle cx="713.2051" cy="460" fill="transparent" r="5" stroke="rgb(0,0,0)" stroke-width="2"/>
<circle cx="688.62897" cy="226.17387" fill="transparent" r="5" stroke="rgb(0,0,0)" stroke-width="2"/>
<circle cx="349.7887" cy="421.8034" fill="transparent" r="5" stroke="rgb(0,0,0)" stroke-width="2"/>
<circle cx="657.55707" cy="198.1966" fill="transparent" r="5" stroke="rgb(0,0,0)" stroke-width="2"/>
<circle cx="478.9895" cy="222.96819" fill="transparent" r="5" stroke="rgb(0,0,0)" stroke-width="2"/>
<circle cx="349.7887" cy="298.1966" fill="transparent" r="5" stroke="rgb(0,0,0)" stroke-width="2"/>
<circle cx="451.8322" cy="481.35254" fill="transparent" r="5" stroke="rgb(0,0,0)" stroke-width="2"/>
<circle cx="508.81323" cy="213.27786" fill="transparent" r="5" stroke="rgb(0,0,0)" stroke-width="2"/>
<circle cx="341.09564" cy="380.9057" fill="transparent" r="5" stroke="rgb(0,0,0)" stroke-width="2"/>
<circle cx="730.2113" cy="298.1966" fill="transparent" r="5" stroke="rgb(0,0,0)" stroke-width="2"/>
<circle cx="669.9038" cy="285" fill="transparent" r="5" stroke="rgb(0,0,0)" stroke-width="2"/>
<circle cx="581.58234" cy="555.6295" fill="transparent" r="5" stroke="rgb(0,0,0)" stroke-width="2"/>
<circle cx="540" cy="210" fill="transparent" r="5" stroke="rgb(0,0,0)" stroke-width="2"/>
<circle cx="738.90436" cy="339.0943" fill="transparent" r="5" stroke="rgb(0,0,0)" stroke-width="2"/>
<path d="M508.81323,213.27786 L478.9895,222.96819" fill="transparent" stroke="rgb(0,100,0)" stroke-width="2"/>
<path d="M478.9895,222.96819 L451.8322,238.64746" fill="transparent" stroke="rgb(4,100,4)" stroke-width="2"/>
<path d="M451.8322,238.64746 L428.52826,259.6304" fill="transparent" stroke="rgb(8,100,8)" stroke-width="2"/>
<path d="M428.52826,259.6304 L410.0962,285" fill="transparent" stroke="rgb(12,100,12)" stroke-width="2"/>
<path d="M410.0962,285 L397.34152,313.64746" fill="transparent" stroke="rgb(16,100,16)" stroke-width="2"/>
<path d="M397.34152,313.64746 L390.82172,344.32074" fill="transparent" stroke="rgb(20,100,20)" stroke-width="2"/>
<path d="M390.82172,344.32074 L390.82172,375.67926" fill="transparent" stroke="rgb(24,100,24)" stroke-width="2"/>
<path d="M390.82172,375.67926 L397.34152,406.35254" fill="transparent" stroke="rgb(28,100,28)" stroke-width="2"/>
<path d="M397.34152,406.35254 L410.0962,435" fill="transparent" stroke="rgb(32,100,32)" stroke-width="2"/>
<path d="M410.0962,435 L428.52826,460.3696" fill="transparent" stroke="rgb(36,100,36)" stroke-width="2"/>
<path d="M428.52826,460.3696 L451.8322,481.35254" fill="transparent" stroke="rgb(40,100,40)" stroke-width="2"/>
<path d="M451.8322,481.35254 L478.9895,497.0318" fill="transparent" stroke="rgb(44,100,44)" stroke-width="2"/>
<path d="M478.9895,497.0318 L508.81323,506.72214" fill="transparent" stroke="rgb(48,100,48)" stroke-width="2"/>
<path d="M508.81323,506.72214 L540,510" fill="transparent" stroke="rgb(52,100,52)" stroke-width="2"/>
<path d="M540,510 L571.18677,506.72214" fill="transparent" stroke="rgb(56,100,56)" stroke-width="2"/>
<path d="M571.18677,506.72214 L601.0105,497.0318" fill="transparent" stroke="rgb(60,100,60)" stroke-width="2"/>
<path d="M601.0105,497.0318 L628.1678,481.35254" fill="transparent" stroke="rgb(64,100,64)" stroke-width="2"/>
<path d="M628.1678,481.35254 L651.47174,460.3696" fill="transparent" stroke="rgb(68,100,68)" stroke-width="2"/>
<path d="M651.47174,460.3696 L669.9038,435" fill="transparent" stroke="rgb(72,100,72)" stroke-width="2"/>
<path d="M669.9038,435 L682.65845,406.35254" fill="transparent" stroke="rgb(76,100,76)" stroke-width="2"/>
<path d="M682.65845,406.35254 L689.1783,375.67926" fill="transparent" stroke="rgb(80,100,80)" stroke-width="2"/>
<path d="M689.1783,375.67926 L689.1783,344.32074" fill="transparent" stroke="rgb(84,100,84)" stroke-width="2"/>
<path d="M689.1783,344.32074 L682.65845,313.64746" fill="transparent" stroke="rgb(88,100,88)" stroke-width="2"/>
<path d="M682.65845,313.64746 L669.9038,285" fill="transparent" stroke="rgb(92,100,92)" stroke-width="2"/>
<path d="M669.9038,285 L651.47174,259.6304" fill="transparent" stroke="rgb(96,100,96)" stroke-width="2"/>
<path d="M651.47174,259.6304 L628.1678,238.64746" fill="transparent" stroke="rgb(100,100,100)" stroke-width="2"/>
<path d="M628.1678,238.64746 L601.0105,222.96819" fill="transparent" stroke="rgb(104,100,104)" stroke-width="2"/>
<path d="M601.0105,222.96819 L571.18677,213.27786" fill="transparent" stroke="rgb(108,100,108)" stroke-width="2"/>
<path d="M571.18677,213.27786 L540,210" fill="transparent" stroke="rgb(112,100,112)" stroke-width="2"/>
<path d="M540,210 L498.41766,164.37048" fill="transparent" stroke="rgb(116,100,116)" stroke-width="2"/>
<path d="M498.41766,164.37048 L458.65268,177.29091" fill="transparent" stroke="rgb(120,100,120)" stroke-width="2"/>
<path d="M458.65268,177.29091 L422.44293,198.1966" fill="transparent" stroke="rgb(124,100,124)" stroke-width="2"/>
<path d="M422.44293,198.1966 L391.37103,226.17387" fill="transparent" stroke="rgb(128,100,128)" stroke-width="2"/>
<path d="M391.37103,226.17387 L366.79492,260" fill="transparent" stroke="rgb(132,100,132)" stroke-width="2"/>
<path d="M366.79492,260 L349.7887,298.1966" fill="transparent" stroke="rgb(136,100,136)" stroke-width="2"/>
<path d="M349.7887,298.1966 L341.09564,339.0943" fill="transparent" stroke="rgb(140,100,140)" stroke-width="2"/>
<path d="M341.09564,339.0943 L341.09564,380.9057" fill="transparent" stroke="rgb(144,100,144)" stroke-width="2"/>
<path d="M341.09564,380.9057 L349.7887,421.8034" fill="transparent" stroke="rgb(148,100,148)" stroke-width="2"/>
<path d="M349.7887,421.8034 L366.79492,460" fill="transparent" stroke="rgb(152,100,152)" stroke-width="2"/>
<path d="M366.79492,460 L391.37103,493.8261" fill="transparent" stroke="rgb(156,100,156)" stroke-width="2"/>
<path d="M391.37103,493.8261 L422.44293,521.8034" fill="transparent" stroke="rgb(160,100,160)" stroke-width="2"/>
<path d="M422.44293,521.8034 L458.65268,542.7091" fill="transparent" stroke="rgb(164,100,164)" stroke-width="2"/>
<path d="M458.65268,542.7091 L498.41766,555.6295" fill="transparent" stroke="rgb(168,100,168)" stroke-width="2"/>
<path d="M498.41766,555.6295 L540,560" fill="transparent" stroke="rgb(172,100,172)" stroke-width="2"/>
<path d="M540,560 L581.58234,555.6295" fill="transparent" stroke="rgb(176,100,176)" stroke-width="2"/>
<path d="M581.58234,555.6295 L621.34735,542.7091" fill="transparent" stroke="rgb(180,100,180)" stroke-width="2"/>
<path d="M621.34735,542.7091 L657.55707,521.8034" fill="transparent" stroke="rgb(184,100,184)" stroke-width="2"/>
<path d="M657.55707,521.8034 L688.62897,493.8261" fill="transparent" stroke="rgb(188,100,188)" stroke-width="2"/>
<path d="M688.62897,493.8261 L713.2051,460" fill="transparent" stroke="rgb(192,100,192)" stroke-width="2"/>
<path d="M713.2051,460 L730.2113,421.8034" fill="transparent" stroke="rgb(196,100,196)" stroke-width="2"/>
<path d="M730.2113,421.8034 L738.90436,380.9057" fill="transparent" stroke="rgb(200,100,200)" stroke-width="2"/>
<path d="M738.90436,380.9057 L738.90436,339.0943" fill="transparent" stroke="rgb(204,100,204)" stroke-width="2"/>
<path d="M738.90436,339.0943 L730.2113,298.1966" fill="transparent" stroke="rgb(208,100,208)" stroke-width="2"/>
<path d="M730.2113,298.1966 L713.2051,260" fill="transparent" stroke="rgb(212,100,212)" stroke-width="2"/>
<path d="M713.2051,260 L688.62897,226.17387" fill="transparent" stroke="rgb(216,100,216)" stroke-width="2"/>
<path d="M688.62897,226.17387 L657.55707,198.1966" fill="transparent" stroke="rgb(220,100,220)" stroke-width="2"/>
<path d="M657.55707,198.1966 L621.34735,177.29091" fill="transparent" stroke="rgb(224,100,224)" stroke-width="2"/>
<path d="M621.34735,177.29091 L581.58234,164.37048" fill="transparent" stroke="rgb(228,100,228)" stroke-width="2"/>
<path d="M581.58234,164.37048 L540,160" fill="transparent" stroke="rgb(232,100,232)" stroke-width="2"/>
</svg>