<svg viewBox="0 0 1080 720" xmlns="http://www.w3.org/2000/svg">
<circle cx="642.9093" cy="420.10788" fill="transparent" r="5" stroke="rgb(0,0,0)" stroke-width="2"/>
<circle cx="450.54617" cy="522.2374" fill="transparent" r="5" stroke="rgb(0,0,0)" stroke-width="2"/>
<circle cx="604.9434" cy="240.21552" fill="transparent" r="5" stroke="rgb(0,0,0)" stroke-width="2"/>
<circle cx="661.3926" cy="416.6941" fill="transparent" r="5" stroke="rgb(0,0,0)" stroke-width="2"/>
<circle cx="432.80313" cy="282.2074" fill="transparent" r="5" stroke="rgb(0,0,0)" stroke-width="2"/>
<circle cx="560.21826" cy="448.0312" fill="transparent" r="5" stroke="rgb(0,0,0)" stroke-width="2"/>
<circle cx="742.347" cy="170.9303" fill="transparent" r="5" stroke="rgb(0,0,0)" stroke-width="2"/>
<circle cx="683.11414" cy="224.13329" fill="transparent" r="5" stroke="rgb(0,0,0)" stroke-width="2"/>
<circle cx="395.11218" cy="286.50458" fill="transparent" r="5" stroke="rgb(0,0,0)" stroke-width="2"/>
<circle cx="632.2558" cy="266.4859" fill="transparent" r="5" stroke="rgb(0,0,0)" stroke-width="2"/>
<circle cx="484.90848" cy="558.82697" fill="transparent" r="5" stroke="rgb(0,0,0)" stroke-width="2"/>
<circle cx="768.92944" cy="442.625" fill="transparent" r="5" stroke="rgb(0,0,0)" stroke-width="2"/>
<circle cx="636.78174" cy="501.3708" fill="transparent" r="5" stroke="rgb(0,0,0)" stroke-width="2"/>
<circle cx="694.87067" cy="500.32767" fill="transparent" r="5" stroke="rgb(0,0,0)" stroke-width="2"/>
<circle cx="652.8334" cy="321.94238" fill="transparent" r="5" stroke="rgb(0,0,0)" stroke-width="2"/>
<circle cx="554.0056" cy="345.98468" fill="transparent" r="5" stroke="rgb(0,0,0)" stroke-width="2"/>
<circle cx="678.13696" cy="328.65118" fill="transparent" r="5" stroke="rgb(0,0,0)" stroke-width="2"/>
<circle cx="613.68976" cy="470.22427" fill="transparent" r="5" stroke="rgb(0,0,0)" stroke-width="2"/>
<circle cx="640.00696" cy="436.57928" fill="transparent" r="5" stroke="rgb(0,0,0)" stroke-width="2"/>
<circle cx="660.90643" cy="491.79883" fill="transparent" r="5" stroke="rgb(0,0,0)" stroke-width="2"/>
<circle cx="561.06744" cy="482.1646" fill="transparent" r="5" stroke="rgb(0,0,0)" stroke-width="2"/>
<circle cx="589.09186" cy="510.67883" fill="transparent" r="5" stroke="rgb(0,0,0)" stroke-width="2"/>
<circle cx="625.0438" cy="468.94638" fill="transparent" r="5" stroke="rgb(0,0,0)" stroke-width="2"/>
<circle cx="345.01303" cy="461.36374" fill="transparent" r="5" stroke="rgb(0,0,0)" stroke-width="2"/>
<circle cx="692.1027" cy="166.61874" fill="transparent" r="5" stroke="rgb(0,0,0)" stroke-width="2"/>
<circle cx="778.5834" cy="226.85648" fill="transparent" r="5" stroke="rgb(0,0,0)" stroke-width="2"/>
<circle cx="691.4322" cy="481.42734" fill="transparent" r="5" stroke="rgb(0,0,0)" stroke-width="2"/>
<circle cx="761.0286" cy="220.56493" fill="transparent" r="5" stroke="rgb(0,0,0)" stroke-width="2"/>
<circle cx="400.25842" cy="417.93668" fill="transparent" r="5" stroke="rgb(0,0,0)" stroke-width="2"/>
<circle cx="467.4347" cy="335.71817" fill="transparent" r="5" stroke="rgb(0,0,0)" stroke-width="2"/>
<circle cx="695.40533" cy="303.5621" fill="transparent" r="5" stroke="rgb(0,0,0)" stroke-width="2"/>
<circle cx="598.01965" cy="409.9379" fill="transparent" r="5" stroke="rgb(0,0,0)" stroke-width="2"/>
<circle cx="817.8216" cy="464.2626" fill="transparent" r="5" stroke="rgb(0,0,0)" stroke-width="2"/>
<circle cx="559.7653" cy="260.7636" fill="transparent" r="5" stroke="rgb(0,0,0)" stroke-width="2"/>
<circle cx="786.62164" cy="461.70587" fill="transparent" r="5" stroke="rgb(0,0,0)" stroke-width="2"/>
<circle cx="829.2989" cy="416.05133" fill="transparent" r="5" stroke="rgb(0,0,0)" stroke-width="2"/>
<circle cx="712.8369" cy="419.18423" fill="transparent" r="5" stroke="rgb(0,0,0)" stroke-width="2"/>
<circle cx="672.7945" cy="495.6814" fill="transparent" r="5" stroke="rgb(0,0,0)" stroke-width="2"/>
<circle cx="695.3419" cy="339.74722" fill="transparent" r="5" stroke="rgb(0,0,0)" stroke-width="2"/>
<circle cx="674.6926" cy="257.84717" fill="transparent" r="5" stroke="rgb(0,0,0)" stroke-width="2"/>
<circle cx="442.60834" cy="484.1205" fill="transparent" r="5" stroke="rgb(0,0,0)" stroke-width="2"/>
<circle cx="785.41504" cy="404.79407" fill="transparent" r="5" stroke="rgb(0,0,0)" stroke-width="2"/>
<circle cx="795.1349" cy="475.5949" fill="transparent" r="5" stroke="rgb(0,0,0)" stroke-width="2"/>
<circle cx="623.0059" cy="424.6468" fill="transparent" r="5" stroke="rgb(0,0,0)" stroke-width="2"/>
<circle cx="785.0208" cy="192.55115" fill="transparent" r="5" stroke="rgb(0,0,0)" stroke-width="2"/>
<circle cx="437.30002" cy="455.63208" fill="transparent" r="5" stroke="rgb(0,0,0)" stroke-width="2"/>
<circle cx="535.40936" cy="319.93277" fill="transparent" r="5" stroke="rgb(0,0,0)" stroke-width="2"/>
<circle cx="348.7837" cy="197.31097" fill="transparent" r="5" stroke="rgb(0,0,0)" stroke-width="2"/>
<circle cx="750.1864" cy="232.59644" fill="transparent" r="5" stroke="rgb(0,0,0)" stroke-width="2"/>
<circle cx="488.65625" cy="302.34518" fill="transparent" r="5" stroke="rgb(0,0,0)" stroke-width="2"/>
<circle cx="727.66925" cy="237.34424" fill="transparent" r="5" stroke="rgb(0,0,0)" stroke-width="2"/>
<circle cx="661.66113" cy="445.26767" fill="transparent" r="5" stroke="rgb(0,0,0)" stroke-width="2"/>
<circle cx="586.67426" cy="166.90999" fill="transparent" r="5" stroke="rgb(0,0,0)" stroke-width="2"/>
<circle cx="350.01154" cy="261.95612" fill="transparent" r="5" stroke="rgb(0,0,0)" stroke-width="2"/>
<circle cx="364.88177" cy="437.84265" fill="transparent" r="5" stroke="rgb(0,0,0)" stroke-width="2"/>
<circle cx="352.51465" cy="182.96877" fill="transparent" r="5" stroke="rgb(0,0,0)" stroke-width="2"/>
<circle cx="596.7165" cy="426.95963" fill="transparent" r="5" stroke="rgb(0,0,0)" stroke-width="2"/>
<circle cx="521.4926" cy="337.09473" fill="transparent" r="5" stroke="rgb(0,0,0)" stroke-width="2"/>
<circle cx="372.0055" cy="498.19537" fill="transparent" r="5" stroke="rgb(0,0,0)" stroke-width="2"/>
<circle cx="621.7404" cy="370.27625" fill="transparent" r="5" stroke="rgb(0,0,0)" stroke-width="2"/>
<circle cx="520.69" cy="228.18904" fill="transparent" r="5" stroke="rgb(0,0,0)" stroke-width="2"/>
<circle cx="697.589" cy="215.79924" fill="transparent" r="5" stroke="rgb(0,0,0)" stroke-width="2"/>
<circle cx="580.32764" cy="379.21603" fill="transparent" r="5" stroke="rgb(0,0,0)" stroke-width="2"/>
<circle cx="413.43018" cy="329.35477" fill="transparent" r="5" stroke="rgb(0,0,0)" stroke-width="2"/>
<circle cx="690.5261" cy="271.76996" fill="transparent" r="5" stroke="rgb(0,0,0)" stroke-width="2"/>
<circle cx="616.6471" cy="352.7103" fill="transparent" r="5" stroke="rgb(0,0,0)" stroke-width="2"/>
<circle cx="771.9448" cy="442.96106" fill="transparent" r="5" stroke="rgb(0,0,0)" stroke-width="2"/>
<circle cx="598.7166" cy="392.83594" fill="transparent" r="5" stroke="rgb(0,0,0)" stroke-width="2"/>
<circle cx="251.25586" cy="186.6501" fill="transparent" r="5" stroke="rgb(0,0,0)" stroke-width="2"/>
<circle cx="246.16653" cy="194.55989" fill="transparent" r="5" stroke="rgb(0,0,0)" stroke-width="2"/>
<circle cx="508.25458" cy="290.79205" fill="transparent" r="5" stroke="rgb(0,0,0)" stroke-width="2"/>
<circle cx="715.6779" cy="458.92935" fill="transparent" r="5" stroke="rgb(0,0,0)" stroke-width="2"/>
<circle cx="756.8259" cy="207.97588" fill="transparent" r="5" stroke="rgb(0,0,0)" stroke-width="2"/>
<circle cx="561.17664" cy="194.57845" fill="transparent" r="5" stroke="rgb(0,0,0)" stroke-width="2"/>
<circle cx="439.43097" cy="500.8086" fill="transparent" r="5" stroke="rgb(0,0,0)" stroke-width="2"/>
<circle cx="449.8398" cy="334.79916" fill="transparent" r="5" stroke="rgb(0,0,0)" stroke-width="2"/>
<circle cx="782.8103" cy="177.94571" fill="transparent" r="5" stroke="rgb(0,0,0)" stroke-width="2"/>
<circle cx="385.77405" cy="224.47794" fill="transparent" r="5" stroke="rgb(0,0,0)" stroke-width="2"/>
<circle cx="642.2234" cy="534.2019" fill="transparent" r="5" stroke="rgb(0,0,0)" stroke-width="2"/>
<circle cx="604.559" cy="442.56763" fill="transparent" r="5" stroke="rgb(0,0,0)" stroke-width="2"/>
<path d="M604.559,442.56763 L596.7165,426.95963" fill="transparent" stroke="rgb(0,100,0)" stroke-width="2"/>
<path d="M596.7165,426.95963 L598.01965,409.9379" fill="transparent" stroke="rgb(3,100,3)" stroke-width="2"/>
<path d="M598.01965,409.9379 L598.7166,392.83594" fill="transparent" stroke="rgb(6,100,6)" stroke-width="2"/>
<path d="M598.7166,392.83594 L580.32764,379.21603" fill="transparent" stroke="rgb(9,100,9)" stroke-width="2"/>
<path d="M580.32764,379.21603 L554.0056,345.98468" fill="transparent" stroke="rgb(12,100,12)" stroke-width="2"/>
<path d="M554.0056,345.98468 L535.40936,319.93277" fill="transparent" stroke="rgb(15,100,15)" stroke-width="2"/>
<path d="M535.40936,319.93277 L508.25458,290.79205" fill="transparent" stroke="rgb(18,100,18)" stroke-width="2"/>
<path d="M508.25458,290.79205 L488.65625,302.34518" fill="transparent" stroke="rgb(21,100,21)" stroke-width="2"/>
<path d="M488.65625,302.34518 L467.4347,335.71817" fill="transparent" stroke="rgb(24,100,24)" stroke-width="2"/>
<path d="M467.4347,335.71817 L449.8398,334.79916" fill="transparent" stroke="rgb(27,100,27)" stroke-width="2"/>
<path d="M449.8398,334.79916 L413.43018,329.35477" fill="transparent" stroke="rgb(30,100,30)" stroke-width="2"/>
<path d="M413.43018,329.35477 L395.11218,286.50458" fill="transparent" stroke="rgb(33,100,33)" stroke-width="2"/>
<path d="M395.11218,286.50458 L350.01154,261.95612" fill="transparent" stroke="rgb(36,100,36)" stroke-width="2"/>
<path d="M350.01154,261.95612 L348.7837,197.31097" fill="transparent" stroke="rgb(39,100,39)" stroke-width="2"/>
<path d="M348.7837,197.31097 L352.51465,182.96877" fill="transparent" stroke="rgb(42,100,42)" stroke-width="2"/>
<path d="M352.51465,182.96877 L561.17664,194.57845" fill="transparent" stroke="rgb(45,100,45)" stroke-width="2"/>
<path d="M561.17664,194.57845 L586.67426,166.90999" fill="transparent" stroke="rgb(48,100,48)" stroke-width="2"/>
<path d="M586.67426,166.90999 L692.1027,166.61874" fill="transparent" stroke="rgb(51,100,51)" stroke-width="2"/>
<path d="M692.1027,166.61874 L697.589,215.79924" fill="transparent" stroke="rgb(54,100,54)" stroke-width="2"/>
<path d="M697.589,215.79924 L683.11414,224.13329" fill="transparent" stroke="rgb(57,100,57)" stroke-width="2"/>
<path d="M683.11414,224.13329 L674.6926,257.84717" fill="transparent" stroke="rgb(60,100,60)" stroke-width="2"/>
<path d="M674.6926,257.84717 L690.5261,271.76996" fill="transparent" stroke="rgb(63,100,63)" stroke-width="2"/>
<path d="M690.5261,271.76996 L695.40533,303.5621" fill="transparent" stroke="rgb(66,100,66)" stroke-width="2"/>
<path d="M695.40533,303.5621 L678.13696,328.65118" fill="transparent" stroke="rgb(69,100,69)" stroke-width="2"/>
<path d="M678.13696,328.65118 L652.8334,321.94238" fill="transparent" stroke="rgb(72,100,72)" stroke-width="2"/>
<path d="M652.8334,321.94238 L616.6471,352.7103" fill="transparent" stroke="rgb(75,100,75)" stroke-width="2"/>
<path d="M616.6471,352.7103 L621.7404,370.27625" fill="transparent" stroke="rgb(78,100,78)" stroke-width="2"/>
<path d="M621.7404,370.27625 L642.9093,420.10788" fill="transparent" stroke="rgb(81,100,81)" stroke-width="2"/>
<path d="M642.9093,420.10788 L640.00696,436.57928" fill="transparent" stroke="rgb(84,100,84)" stroke-width="2"/>
<path d="M640.00696,436.57928 L661.66113,445.26767" fill="transparent" stroke="rgb(87,100,87)" stroke-width="2"/>
<path d="M661.66113,445.26767 L660.90643,491.79883" fill="transparent" stroke="rgb(90,100,90)" stroke-width="2"/>
<path d="M660.90643,491.79883 L672.7945,495.6814" fill="transparent" stroke="rgb(93,100,93)" stroke-width="2"/>
<path d="M672.7945,495.6814 L694.87067,500.32767" fill="transparent" stroke="rgb(96,100,96)" stroke-width="2"/>
<path d="M694.87067,500.32767 L715.6779,458.92935" fill="transparent" stroke="rgb(99,100,99)" stroke-width="2"/>
<path d="M715.6779,458.92935 L712.8369,419.18423" fill="transparent" stroke="rgb(102,100,102)" stroke-width="2"/>
<path d="M712.8369,419.18423 L661.3926,416.6941" fill="transparent" stroke="rgb(105,100,105)" stroke-width="2"/>
<path d="M661.3926,416.6941 L623.0059,424.6468" fill="transparent" stroke="rgb(108,100,108)" stroke-width="2"/>
<path d="M623.0059,424.6468 L625.0438,468.94638" fill="transparent" stroke="rgb(111,100,111)" stroke-width="2"/>
<path d="M625.0438,468.94638 L613.68976,470.22427" fill="transparent" stroke="rgb(114,100,114)" stroke-width="2"/>
<path d="M613.68976,470.22427 L589.09186,510.67883" fill="transparent" stroke="rgb(117,100,117)" stroke-width="2"/>
<path d="M589.09186,510.67883 L484.90848,558.82697" fill="transparent" stroke="rgb(120,100,120)" stroke-width="2"/>
<path d="M484.90848,558.82697 L450.54617,522.2374" fill="transparent" stroke="rgb(123,100,123)" stroke-width="2"/>
<path d="M450.54617,522.2374 L439.43097,500.8086" fill="transparent" stroke="rgb(126,100,126)" stroke-width="2"/>
<path d="M439.43097,500.8086 L442.60834,484.1205" fill="transparent" stroke="rgb(129,100,129)" stroke-width="2"/>
<path d="M442.60834,484.1205 L437.30002,455.63208" fill="transparent" stroke="rgb(132,100,132)" stroke-width="2"/>
<path d="M437.30002,455.63208 L400.25842,417.93668" fill="transparent" stroke="rgb(135,100,135)" stroke-width="2"/>
<path d="M400.25842,417.93668 L364.88177,437.84265" fill="transparent" stroke="rgb(138,100,138)" stroke-width="2"/>
<path d="M364.88177,437.84265 L345.01303,461.36374" fill="transparent" stroke="rgb(141,100,141)" stroke-width="2"/>
<path d="M345.01303,461.36374 L372.0055,498.19537" fill="transparent" stroke="rgb(144,100,144)" stroke-width="2"/>
<path d="M372.0055,498.19537 L561.06744,482.1646" fill="transparent" stroke="rgb(147,100,147)" stroke-width="2"/>
<path d="M561.06744,482.1646 L560.21826,448.0312" fill="transparent" stroke="rgb(150,100,150)" stroke-width="2"/>
<path d="M560.21826,448.0312 L521.4926,337.09473" fill="transparent" stroke="rgb(153,100,153)" stroke-width="2"/>
<path d="M521.4926,337.09473 L559.7653,260.7636" fill="transparent" stroke="rgb(156,100,156)" stroke-width="2"/>
<path d="M559.7653,260.7636 L604.9434,240.21552" fill="transparent" stroke="rgb(159,100,159)" stroke-width="2"/>
<path d="M604.9434,240.21552 L632.2558,266.4859" fill="transparent" stroke="rgb(162,100,162)" stroke-width="2"/>
<path d="M632.2558,266.4859 L695.3419,339.74722" fill="transparent" stroke="rgb(165,100,165)" stroke-width="2"/>
<path d="M695.3419,339.74722 L785.41504,404.79407" fill="transparent" stroke="rgb(168,100,168)" stroke-width="2"/>
<path d="M785.41504,404.79407 L771.9448,442.96106" fill="transparent" stroke="rgb(171,100,171)" stroke-width="2"/>
<path d="M771.9448,442.96106 L768.92944,442.625" fill="transparent" stroke="rgb(174,100,174)" stroke-width="2"/>
<path d="M768.92944,442.625 L691.4322,481.42734" fill="transparent" stroke="rgb(177,100,177)" stroke-width="2"/>
<path d="M691.4322,481.42734 L636.78174,501.3708" fill="transparent" stroke="rgb(180,100,180)" stroke-width="2"/>
<path d="M636.78174,501.3708 L520.69,228.18904" fill="transparent" stroke="rgb(183,100,183)" stroke-width="2"/>
<path d="M520.69,228.18904 L385.77405,224.47794" fill="transparent" stroke="rgb(186,100,186)" stroke-width="2"/>
<path d="M385.77405,224.47794 L251.25586,186.6501" fill="transparent" stroke="rgb(189,100,189)" stroke-width="2"/>
<path d="M251.25586,186.6501 L246.16653,194.55989" fill="transparent" stroke="rgb(192,100,192)" stroke-width="2"/>
<path d="M246.16653,194.55989 L642.2234,534.2019" fill="transparent" stroke="rgb(195,100,195)" stroke-width="2"/>
<path d="M642.2234,534.2019 L795.1349,475.5949" fill="transparent" stroke="rgb(198,100,198)" stroke-width="2"/>
<path d="M795.1349,475.5949 L750.1864,232.59644" fill="transparent" stroke="rgb(201,100,201)" stroke-width="2"/>
<path d="M750.1864,232.59644 L761.0286,220.56493" fill="transparent" stroke="rgb(204,100,204)" stroke-width="2"/>
<path d="M761.0286,220.56493 L778.5834,226.85648" fill="transparent" stroke="rgb(207,100,207)" stroke-width="2"/>
<path d="M778.5834,226.85648 L829.2989,416.05133" fill="transparent" stroke="rgb(210,100,210)" stroke-width="2"/>
<path d="M829.2989,416.05133 L817.8216,464.2626" fill="transparent" stroke="rgb(213,100,213)" stroke-width="2"/>
<path d="M817.8216,464.2626 L786.62164,461.70587" fill="transparent" stroke="rgb(216,100,216)" stroke-width="2"/>
<path d="M786.62164,461.70587 L727.66925,237.34424" fill="transparent" stroke="rgb(219,100,219)" stroke-width="2"/>
<path d="M727.66925,237.34424 L756.8259,207.97588" fill="transparent" stroke="rgb(222,100,222)" stroke-width="2"/>
<path d="M756.8259,207.97588 L785.0208,192.55115" fill="transparent" stroke="rgb(225,100,225)" stroke-width="2"/>
<path d="M785.0208,192.55115 L782.8103,177.94571" fill="transparent" stroke="rgb(228,100,228)" stroke-width="2"/>
<path d="M782.8103,177.94571 L742.347,170.9303" fill="transparent" stroke="rgb(231,100,231)" stroke-width="2"/>
<path d="M742.347,170.9303 L432.80313,282.2074" fill="transparent" stroke="rgb(234,100,234)" stroke-width="2"/>
</svg>