<svg viewBox="0 0 1080 720" xmlns="http://www.w3.org/2000/svg">
<circle cx="709.28204" cy="500" fill="transparent" r="5" stroke="rgb(0,0,0)" stroke-width="2"/>
<circle cx="719.56177" cy="351.63773" fill="transparent" r="5" stroke="rgb(0,0,0)" stroke-width="2"/>
<circle cx="556.63293" cy="281.7482" fill="transparent" r="5" stroke="rgb(0,0,0)" stroke-width="2"/>
<circle cx="716.08453" cy="484.72137" fill="transparent" r="5" stroke="rgb(0,0,0)" stroke-width="2"/>
<circle cx="507.46106" cy="433.08362" fill="transparent" r="5" stroke="rgb(0,0,0)" stroke-width="2"/>
<circle cx="616.08453" cy="435.27863" fill="transparent" r="5" stroke="rgb(0,0,0)" stroke-width="2"/>
<circle cx="572.53894" cy="533.0836" fill="transparent" r="5" stroke="rgb(0,0,0)" stroke-width="2"/>
<circle cx="460.43823" cy="468.36227" fill="transparent" r="5" stroke="rgb(0,0,0)" stroke-width="2"/>
<circle cx="672.53894" cy="433.08362" fill="transparent" r="5" stroke="rgb(0,0,0)" stroke-width="2"/>
<circle cx="619.56177" cy="368.36227" fill="transparent" r="5" stroke="rgb(0,0,0)" stroke-width="2"/>
<circle cx="599.4516" cy="406.46954" fill="transparent" r="5" stroke="rgb(0,0,0)" stroke-width="2"/>
<circle cx="580.5484" cy="413.53046" fill="transparent" r="5" stroke="rgb(0,0,0)" stroke-width="2"/>
<circle cx="563.91547" cy="335.27863" fill="transparent" r="5" stroke="rgb(0,0,0)" stroke-width="2"/>
<circle cx="623.36707" cy="438.2518" fill="transparent" r="5" stroke="rgb(0,0,0)" stroke-width="2"/>
<circle cx="716.08453" cy="384.72137" fill="transparent" r="5" stroke="rgb(0,0,0)" stroke-width="2"/>
<circle cx="656.63293" cy="381.7482" fill="transparent" r="5" stroke="rgb(0,0,0)" stroke-width="2"/>
<circle cx="563.91547" cy="384.72137" fill="transparent" r="5" stroke="rgb(0,0,0)" stroke-width="2"/>
<circle cx="480.5484" cy="413.53046" fill="transparent" r="5" stroke="rgb(0,0,0)" stroke-width="2"/>
<circle cx="540" cy="540" fill="transparent" r="5" stroke="rgb(0,0,0)" stroke-width="2"/>
<circle cx="492.97717" cy="395.27863" fill="transparent" r="5" stroke="rgb(0,0,0)" stroke-width="2"/>
<circle cx="460.43823" cy="368.36227" fill="transparent" r="5" stroke="rgb(0,0,0)" stroke-width="2"/>
<circle cx="609.28204" cy="400" fill="transparent" r="5" stroke="rgb(0,0,0)" stroke-width="2"/>
<circle cx="623.36707" cy="281.7482" fill="transparent" r="5" stroke="rgb(0,0,0)" stroke-width="2"/>
<circle cx="556.63293" cy="381.7482" fill="transparent" r="5" stroke="rgb(0,0,0)" stroke-width="2"/>
<circle cx="656.63293" cy="538.25183" fill="transparent" r="5" stroke="rgb(0,0,0)" stroke-width="2"/>
<circle cx="460.43823" cy="351.63773" fill="transparent" r="5" stroke="rgb(0,0,0)" stroke-width="2"/>
<circle cx="616.08453" cy="384.72137" fill="transparent" r="5" stroke="rgb(0,0,0)" stroke-width="2"/>
<circle cx="699.4516" cy="413.53046" fill="transparent" r="5" stroke="rgb(0,0,0)" stroke-width="2"/>
<circle cx="619.56177" cy="451.63773" fill="transparent" r="5" stroke="rgb(0,0,0)" stroke-width="2"/>
<circle cx="560.43823" cy="451.63773" fill="transparent" r="5" stroke="rgb(0,0,0)" stroke-width="2"/>
<circle cx="480.5484" cy="513.53046" fill="transparent" r="5" stroke="rgb(0,0,0)" stroke-width="2"/>
<circle cx="540" cy="440" fill="transparent" r="5" stroke="rgb(0,0,0)" stroke-width="2"/>
<circle cx="687.0228" cy="395.27863" fill="transparent" r="5" stroke="rgb(0,0,0)" stroke-width="2"/>
<circle cx="540" cy="280" fill="transparent" r="5" stroke="rgb(0,0,0)" stroke-width="2"/>
<circle cx="699.4516" cy="513.53046" fill="transparent" r="5" stroke="rgb(0,0,0)" stroke-width="2"/>
<circle cx="480.5484" cy="406.46954" fill="transparent" r="5" stroke="rgb(0,0,0)" stroke-width="2"/>
<circle cx="540" cy="380" fill="transparent" r="5" stroke="rgb(0,0,0)" stroke-width="2"/>
<circle cx="523.36707" cy="281.7482" fill="transparent" r="5" stroke="rgb(0,0,0)" stroke-width="2"/>
<circle cx="592.9772" cy="395.27863" fill="transparent" r="5" stroke="rgb(0,0,0)" stroke-width="2"/>
<circle cx="607.46106" cy="286.91638" fill="transparent" r="5" stroke="rgb(0,0,0)" stroke-width="2"/>
<circle cx="560.43823" cy="351.63773" fill="transparent" r="5" stroke="rgb(0,0,0)" stroke-width="2"/>
<circle cx="599.4516" cy="306.46954" fill="transparent" r="5" stroke="rgb(0,0,0)" stroke-width="2"/>
<circle cx="709.28204" cy="400" fill="transparent" r="5" stroke="rgb(0,0,0)" stroke-width="2"/>
<circle cx="572.53894" cy="433.08362" fill="transparent" r="5" stroke="rgb(0,0,0)" stroke-width="2"/>
<circle cx="599.4516" cy="413.53046" fill="transparent" r="5" stroke="rgb(0,0,0)" stroke-width="2"/>
<circle cx="507.46106" cy="286.91638" fill="transparent" r="5" stroke="rgb(0,0,0)" stroke-width="2"/>
<circle cx="699.4516" cy="306.46954" fill="transparent" r="5" stroke="rgb(0,0,0)" stroke-width="2"/>
<circle cx="592.9772" cy="524.7214" fill="transparent" r="5" stroke="rgb(0,0,0)" stroke-width="2"/>
<circle cx="507.46106" cy="386.91635" fill="transparent" r="5" stroke="rgb(0,0,0)" stroke-width="2"/>
<circle cx="470.71796" cy="320" fill="transparent" r="5" stroke="rgb(0,0,0)" stroke-width="2"/>
<circle cx="607.46106" cy="533.0836" fill="transparent" r="5" stroke="rgb(0,0,0)" stroke-width="2"/>
<circle cx="623.36707" cy="381.7482" fill="transparent" r="5" stroke="rgb(0,0,0)" stroke-width="2"/>
<circle cx="570.71796" cy="420" fill="transparent" r="5" stroke="rgb(0,0,0)" stroke-width="2"/>
<circle cx="709.28204" cy="320" fill="transparent" r="5" stroke="rgb(0,0,0)" stroke-width="2"/>
<circle cx="592.9772" cy="424.72137" fill="transparent" r="5" stroke="rgb(0,0,0)" stroke-width="2"/>
<circle cx="560.43823" cy="468.36227" fill="transparent" r="5" stroke="rgb(0,0,0)" stroke-width="2"/>
<circle cx="640" cy="540" fill="transparent" r="5" stroke="rgb(0,0,0)" stroke-width="2"/>
<circle cx="687.0228" cy="524.7214" fill="transparent" r="5" stroke="rgb(0,0,0)" stroke-width="2"/>
<circle cx="687.0228" cy="295.27863" fill="transparent" r="5" stroke="rgb(0,0,0)" stroke-width="2"/>
<circle cx="672.53894" cy="286.91638" fill="transparent" r="5" stroke="rgb(0,0,0)" stroke-width="2"/>
<circle cx="607.46106" cy="386.91635" fill="transparent" r="5" stroke="rgb(0,0,0)" stroke-width="2"/>
<circle cx="607.46106" cy="433.08362" fill="transparent" r="5" stroke="rgb(0,0,0)" stroke-width="2"/>
<circle cx="563.91547" cy="484.72137" fill="transparent" r="5" stroke="rgb(0,0,0)" stroke-width="2"/>
<circle cx="572.53894" cy="286.91638" fill="transparent" r="5" stroke="rgb(0,0,0)" stroke-width="2"/>
<circle cx="656.63293" cy="438.2518" fill="transparent" r="5" stroke="rgb(0,0,0)" stroke-width="2"/>
<circle cx="619.56177" cy="351.63773" fill="transparent" r="5" stroke="rgb(0,0,0)" stroke-width="2"/>
<circle cx="492.97717" cy="524.7214" fill="transparent" r="5" stroke="rgb(0,0,0)" stroke-width="2"/>
<circle cx="640" cy="380" fill="transparent" r="5" stroke="rgb(0,0,0)" stroke-width="2"/>
<circle cx="560.43823" cy="368.36227" fill="transparent" r="5" stroke="rgb(0,0,0)" stroke-width="2"/>
<circle cx="580.5484" cy="513.53046" fill="transparent" r="5" stroke="rgb(0,0,0)" stroke-width="2"/>
<circle cx="687.0228" cy="424.72137" fill="transparent" r="5" stroke="rgb(0,0,0)" stroke-width="2"/>
<circle cx="580.5484" cy="406.46954" fill="transparent" r="5" stroke="rgb(0,0,0)" stroke-width="2"/>
<circle cx="523.36707" cy="381.7482" fill="transparent" r="5" stroke="rgb(0,0,0)" stroke-width="2"/>
<circle cx="572.53894" cy="386.91635" fill="transparent" r="5" stroke="rgb(0,0,0)" stroke-width="2"/>
<circle cx="463.91547" cy="335.27863" fill="transparent" r="5" stroke="rgb(0,0,0)" stroke-width="2"/>
<circle cx="609.28204" cy="320" fill="transparent" r="5" stroke="rgb(0,0,0)" stroke-width="2"/>
<circle cx="563.91547" cy="435.27863" fill="transparent" r="5" stroke="rgb(0,0,0)" stroke-width="2"/>
<circle cx="570.71796" cy="500" fill="transparent" r="5" stroke="rgb(0,0,0)" stroke-width="2"/>
<circle cx="709.28204" cy="420" fill="transparent" r="5" stroke="rgb(0,0,0)" stroke-width="2"/>
<circle cx="587.0228" cy="295.27863" fill="transparent" r="5" stroke="rgb(0,0,0)" stroke-width="2"/>
<circle cx="470.71796" cy="500" fill="transparent" r="5" stroke="rgb(0,0,0)" stroke-width="2"/>
<circle cx="523.36707" cy="438.2518" fill="transparent" r="5" stroke="rgb(0,0,0)" stroke-width="2"/>
<circle cx="719.56177" cy="451.63773" fill="transparent" r="5" stroke="rgb(0,0,0)" stroke-width="2"/>
<circle cx="609.28204" cy="420" fill="transparent" r="5" stroke="rgb(0,0,0)" stroke-width="2"/>
<circle cx="599.4516" cy="513.53046" fill="transparent" r="5" stroke="rgb(0,0,0)" stroke-width="2"/>
<circle cx="719.56177" cy="468.36227" fill="transparent" r="5" stroke="rgb(0,0,0)" stroke-width="2"/>
<circle cx="587.0228" cy="395.27863" fill="transparent" r="5" stroke="rgb(0,0,0)" stroke-width="2"/>
<circle cx="623.36707" cy="538.25183" fill="transparent" r="5" stroke="rgb(0,0,0)" stroke-width="2"/>
<circle cx="609.28204" cy="500" fill="transparent" r="5" stroke="rgb(0,0,0)" stroke-width="2"/>
<circle cx="463.91547" cy="484.72137" fill="transparent" r="5" stroke="rgb(0,0,0)" stroke-width="2"/>
<circle cx="523.36707" cy="538.25183" fill="transparent" r="5" stroke="rgb(0,0,0)" stroke-width="2"/>
<circle cx="592.9772" cy="295.27863" fill="transparent" r="5" stroke="rgb(0,0,0)" stroke-width="2"/>
<circle cx="492.97717" cy="424.72137" fill="transparent" r="5" stroke="rgb(0,0,0)" stroke-width="2"/>
<circle cx="470.71796" cy="420" fill="transparent" r="5" stroke="rgb(0,0,0)" stroke-width="2"/>
<circle cx="556.63293" cy="438.2518" fill="transparent" r="5" stroke="rgb(0,0,0)" stroke-width="2"/>
<circle cx="640" cy="440" fill="transparent" r="5" stroke="rgb(0,0,0)" stroke-width="2"/>
<circle cx="492.97717" cy="295.27863" fill="transparent" r="5" stroke="rgb(0,0,0)" stroke-width="2"/>
<circle cx="716.08453" cy="335.27863" fill="transparent" r="5" stroke="rgb(0,0,0)" stroke-width="2"/>
<circle cx="463.91547" cy="435.27863" fill="transparent" r="5" stroke="rgb(0,0,0)" stroke-width="2"/>
<circle cx="580.5484" cy="306.46954" fill="transparent" r="5" stroke="rgb(0,0,0)" stroke-width="2"/>
<circle cx="587.0228" cy="424.72137" fill="transparent" r="5" stroke="rgb(0,0,0)" stroke-width="2"/>
<circle cx="460.43823" cy="451.63773" fill="transparent" r="5" stroke="rgb(0,0,0)" stroke-width="2"/>
<circle cx="699.4516" cy="406.46954" fill="transparent" r="5" stroke="rgb(0,0,0)" stroke-width="2"/>
<circle cx="570.71796" cy="400" fill="transparent" r="5" stroke="rgb(0,0,0)" stroke-width="2"/>
<circle cx="507.46106" cy="533.0836" fill="transparent" r="5" stroke="rgb(0,0,0)" stroke-width="2"/>
<circle cx="470.71796" cy="400" fill="transparent" r="5" stroke="rgb(0,0,0)" stroke-width="2"/>
<circle cx="556.63293" cy="538.25183" fill="transparent" r="5" stroke="rgb(0,0,0)" stroke-width="2"/>
<circle cx="640" cy="280" fill="transparent" r="5" stroke="rgb(0,0,0)" stroke-width="2"/>
<circle cx="656.63293" cy="281.7482" fill="transparent" r="5" stroke="rgb(0,0,0)" stroke-width="2"/>
<circle cx="463.91547" cy="384.72137" fill="transparent" r="5" stroke="rgb(0,0,0)" stroke-width="2"/>
<circle cx="719.56177" cy="368.36227" fill="transparent" r="5" stroke="rgb(0,0,0)" stroke-width="2"/>
<circle cx="587.0228" cy="524.7214" fill="transparent" r="5" stroke="rgb(0,0,0)" stroke-width="2"/>
<circle cx="619.56177" cy="468.36227" fill="transparent" r="5" stroke="rgb(0,0,0)" stroke-width="2"/>
<circle cx="672.53894" cy="386.91635" fill="transparent" r="5" stroke="rgb(0,0,0)" stroke-width="2"/>
<circle cx="716.08453" cy="435.27863" fill="transparent" r="5" stroke="rgb(0,0,0)" stroke-width="2"/>
<circle cx="616.08453" cy="335.27863" fill="transparent" r="5" stroke="rgb(0,0,0)" stroke-width="2"/>
<circle cx="616.08453" cy="484.72137" fill="transparent" r="5" stroke="rgb(0,0,0)" stroke-width="2"/>
<circle cx="480.5484" cy="306.46954" fill="transparent" r="5" stroke="rgb(0,0,0)" stroke-width="2"/>
<circle cx="672.53894" cy="533.0836" fill="transparent" r="5" stroke="rgb(0,0,0)" stroke-width="2"/>
<circle cx="570.71796" cy="320" fill="transparent" r="5" stroke="rgb(0,0,0)" stroke-width="2"/>
<path d="M619.56177,368.36227 L607.46106,386.91635" fill="transparent" stroke="rgb(0,100,0)" stroke-width="2"/>
<path d="M607.46106,386.91635 L592.9772,395.27863" fill="transparent" stroke="rgb(2,100,2)" stroke-width="2"/>
<path d="M592.9772,395.27863 L580.5484,406.46954" fill="transparent" stroke="rgb(4,100,4)" stroke-width="2"/>
<path d="M580.5484,406.46954 L570.71796,420" fill="transparent" stroke="rgb(6,100,6)" stroke-width="2"/>
<path d="M570.71796,420 L556.63293,438.2518" fill="transparent" stroke="rgb(8,100,8)" stroke-width="2"/>
<path d="M556.63293,438.2518 L540,440" fill="transparent" stroke="rgb(10,100,10)" stroke-width="2"/>
<path d="M540,440 L523.36707,438.2518" fill="transparent" stroke="rgb(12,100,12)" stroke-width="2"/>
<path d="M523.36707,438.2518 L507.46106,433.08362" fill="transparent" stroke="rgb(14,100,14)" stroke-width="2"/>
<path d="M507.46106,433.08362 L492.97717,424.72137" fill="transparent" stroke="rgb(16,100,16)" stroke-width="2"/>
<path d="M492.97717,424.72137 L480.5484,413.53046" fill="transparent" stroke="rgb(18,100,18)" stroke-width="2"/>
<path d="M480.5484,413.53046 L470.71796,400" fill="transparent" stroke="rgb(20,100,20)" stroke-width="2"/>
<path d="M470.71796,400 L463.91547,384.72137" fill="transparent" stroke="rgb(22,100,22)" stroke-width="2"/>
<path d="M463.91547,384.72137 L460.43823,368.36227" fill="transparent" stroke="rgb(24,100,24)" stroke-width="2"/>
<path d="M460.43823,368.36227 L460.43823,351.63773" fill="transparent" stroke="rgb(26,100,26)" stroke-width="2"/>
<path d="M460.43823,351.63773 L463.91547,335.27863" fill="transparent" stroke="rgb(28,100,28)" stroke-width="2"/>
<path d="M463.91547,335.27863 L470.71796,320" fill="transparent" stroke="rgb(30,100,30)" stroke-width="2"/>
<path d="M470.71796,320 L480.5484,306.46954" fill="transparent" stroke="rgb(32,100,32)" stroke-width="2"/>
<path d="M480.5484,306.46954 L492.97717,295.27863" fill="transparent" stroke="rgb(34,100,34)" stroke-width="2"/>
<path d="M492.97717,295.27863 L507.46106,286.91638" fill="transparent" stroke="rgb(36,100,36)" stroke-width="2"/>
<path d="M507.46106,286.91638 L523.36707,281.7482" fill="transparent" stroke="rgb(38,100,38)" stroke-width="2"/>
<path d="M523.36707,281.7482 L540,280" fill="transparent" stroke="rgb(40,100,40)" stroke-width="2"/>
<path d="M540,280 L556.63293,281.7482" fill="transparent" stroke="rgb(42,100,42)" stroke-width="2"/>
<path d="M556.63293,281.7482 L572.53894,286.91638" fill="transparent" stroke="rgb(44,100,44)" stroke-width="2"/>
<path d="M572.53894,286.91638 L592.9772,295.27863" fill="transparent" stroke="rgb(46,100,46)" stroke-width="2"/>
<path d="M592.9772,295.27863 L599.4516,306.46954" fill="transparent" stroke="rgb(48,100,48)" stroke-width="2"/>
<path d="M599.4516,306.46954 L609.28204,320" fill="transparent" stroke="rgb(50,100,50)" stroke-width="2"/>
<path d="M609.28204,320 L616.08453,335.27863" fill="transparent" stroke="rgb(52,100,52)" stroke-width="2"/>
<path d="M616.08453,335.27863 L619.56177,351.63773" fill="transparent" stroke="rgb(54,100,54)" stroke-width="2"/>
<path d="M619.56177,351.63773 L623.36707,381.7482" fill="transparent" stroke="rgb(56,100,56)" stroke-width="2"/>
<path d="M623.36707,381.7482 L623.36707,438.2518" fill="transparent" stroke="rgb(58,100,58)" stroke-width="2"/>
<path d="M623.36707,438.2518 L619.56177,468.36227" fill="transparent" stroke="rgb(60,100,60)" stroke-width="2"/>
<path d="M619.56177,468.36227 L616.08453,484.72137" fill="transparent" stroke="rgb(62,100,62)" stroke-width="2"/>
<path d="M616.08453,484.72137 L609.28204,500" fill="transparent" stroke="rgb(64,100,64)" stroke-width="2"/>
<path d="M609.28204,500 L599.4516,513.53046" fill="transparent" stroke="rgb(66,100,66)" stroke-width="2"/>
<path d="M599.4516,513.53046 L592.9772,524.7214" fill="transparent" stroke="rgb(68,100,68)" stroke-width="2"/>
<path d="M592.9772,524.7214 L572.53894,533.0836" fill="transparent" stroke="rgb(70,100,70)" stroke-width="2"/>
<path d="M572.53894,533.0836 L556.63293,538.25183" fill="transparent" stroke="rgb(72,100,72)" stroke-width="2"/>
<path d="M556.63293,538.25183 L540,540" fill="transparent" stroke="rgb(74,100,74)" stroke-width="2"/>
<path d="M540,540 L523.36707,538.25183" fill="transparent" stroke="rgb(76,100,76)" stroke-width="2"/>
<path d="M523.36707,538.25183 L507.46106,533.0836" fill="transparent" stroke="rgb(78,100,78)" stroke-width="2"/>
<path d="M507.46106,533.0836 L492.97717,524.7214" fill="transparent" stroke="rgb(80,100,80)" stroke-width="2"/>
<path d="M492.97717,524.7214 L480.5484,513.53046" fill="transparent" stroke="rgb(82,100,82)" stroke-width="2"/>
<path d="M480.5484,513.53046 L470.71796,500" fill="transparent" stroke="rgb(84,100,84)" stroke-width="2"/>
<path d="M470.71796,500 L463.91547,484.72137" fill="transparent" stroke="rgb(86,100,86)" stroke-width="2"/>
<path d="M463.91547,484.72137 L460.43823,468.36227" fill="transparent" stroke="rgb(88,100,88)" stroke-width="2"/>
<path d="M460.43823,468.36227 L460.43823,451.63773" fill="transparent" stroke="rgb(90,100,90)" stroke-width="2"/>
<path d="M460.43823,451.63773 L463.91547,435.27863" fill="transparent" stroke="rgb(92,100,92)" stroke-width="2"/>
<path d="M463.91547,435.27863 L470.71796,420" fill="transparent" stroke="rgb(94,100,94)" stroke-width="2"/>
<path d="M470.71796,420 L480.5484,406.46954" fill="transparent" stroke="rgb(96,100,96)" stroke-width="2"/>
<path d="M480.5484,406.46954 L492.97717,395.27863" fill="transparent" stroke="rgb(98,100,98)" stroke-width="2"/>
<path d="M492.97717,395.27863 L507.46106,386.91635" fill="transparent" stroke="rgb(100,100,100)" stroke-width="2"/>
<path d="M507.46106,386.91635 L523.36707,381.7482" fill="transparent" stroke="rgb(102,100,102)" stroke-width="2"/>
<path d="M523.36707,381.7482 L540,380" fill="transparent" stroke="rgb(104,100,104)" stroke-width="2"/>
<path d="M540,380 L556.63293,381.7482" fill="transparent" stroke="rgb(106,100,106)" stroke-width="2"/>
<path d="M556.63293,381.7482 L563.91547,384.72137" fill="transparent" stroke="rgb(108,100,108)" stroke-width="2"/>
<path d="M563.91547,384.72137 L572.53894,386.91635" fill="transparent" stroke="rgb(110,100,110)" stroke-width="2"/>
<path d="M572.53894,386.91635 L587.0228,395.27863" fill="transparent" stroke="rgb(112,100,112)" stroke-width="2"/>
<path d="M587.0228,395.27863 L599.4516,406.46954" fill="transparent" stroke="rgb(114,100,114)" stroke-width="2"/>
<path d="M599.4516,406.46954 L609.28204,420" fill="transparent" stroke="rgb(116,100,116)" stroke-width="2"/>
<path d="M609.28204,420 L616.08453,435.27863" fill="transparent" stroke="rgb(118,100,118)" stroke-width="2"/>
<path d="M616.08453,435.27863 L619.56177,451.63773" fill="transparent" stroke="rgb(120,100,120)" stroke-width="2"/>
<path d="M619.56177,451.63773 L640,540" fill="transparent" stroke="rgb(122,100,122)" stroke-width="2"/>
<path d="M640,540 L656.63293,538.25183" fill="transparent" stroke="rgb(124,100,124)" stroke-width="2"/>
<path d="M656.63293,538.25183 L672.53894,533.0836" fill="transparent" stroke="rgb(126,100,126)" stroke-width="2"/>
<path d="M672.53894,533.0836 L687.0228,524.7214" fill="transparent" stroke="rgb(128,100,128)" stroke-width="2"/>
<path d="M687.0228,524.7214 L699.4516,513.53046" fill="transparent" stroke="rgb(130,100,130)" stroke-width="2"/>
<path d="M699.4516,513.53046 L709.28204,500" fill="transparent" stroke="rgb(132,100,132)" stroke-width="2"/>
<path d="M709.28204,500 L716.08453,484.72137" fill="transparent" stroke="rgb(134,100,134)" stroke-width="2"/>
<path d="M716.08453,484.72137 L719.56177,468.36227" fill="transparent" stroke="rgb(136,100,136)" stroke-width="2"/>
<path d="M719.56177,468.36227 L719.56177,451.63773" fill="transparent" stroke="rgb(138,100,138)" stroke-width="2"/>
<path d="M719.56177,451.63773 L716.08453,435.27863" fill="transparent" stroke="rgb(140,100,140)" stroke-width="2"/>
<path d="M716.08453,435.27863 L709.28204,400" fill="transparent" stroke="rgb(142,100,142)" stroke-width="2"/>
<path d="M709.28204,400 L716.08453,384.72137" fill="transparent" stroke="rgb(144,100,144)" stroke-width="2"/>
<path d="M716.08453,384.72137 L719.56177,368.36227" fill="transparent" stroke="rgb(146,100,146)" stroke-width="2"/>
<path d="M719.56177,368.36227 L719.56177,351.63773" fill="transparent" stroke="rgb(148,100,148)" stroke-width="2"/>
<path d="M719.56177,351.63773 L716.08453,335.27863" fill="transparent" stroke="rgb(150,100,150)" stroke-width="2"/>
<path d="M716.08453,335.27863 L709.28204,320" fill="transparent" stroke="rgb(152,100,152)" stroke-width="2"/>
<path d="M709.28204,320 L699.4516,306.46954" fill="transparent" stroke="rgb(154,100,154)" stroke-width="2"/>
<path d="M699.4516,306.46954 L687.0228,295.27863" fill="transparent" stroke="rgb(156,100,156)" stroke-width="2"/>
<path d="M687.0228,295.27863 L672.53894,286.91638" fill="transparent" stroke="rgb(158,100,158)" stroke-width="2"/>
<path d="M672.53894,286.91638 L656.63293,281.7482" fill="transparent" stroke="rgb(160,100,160)" stroke-width="2"/>
<path d="M656.63293,281.7482 L640,280" fill="transparent" stroke="rgb(162,100,162)" stroke-width="2"/>
<path d="M640,280 L623.36707,281.7482" fill="transparent" stroke="rgb(164,100,164)" stroke-width="2"/>
<path d="M623.36707,281.7482 L607.46106,286.91638" fill="transparent" stroke="rgb(166,100,166)" stroke-width="2"/>
<path d="M607.46106,286.91638 L587.0228,295.27863" fill="transparent" stroke="rgb(168,100,168)" stroke-width="2"/>
<path d="M587.0228,295.27863 L580.5484,306.46954" fill="transparent" stroke="rgb(170,100,170)" stroke-width="2"/>
<path d="M580.5484,306.46954 L570.71796,320" fill="transparent" stroke="rgb(172,100,172)" stroke-width="2"/>
<path d="M570.71796,320 L563.91547,335.27863" fill="transparent" stroke="rgb(174,100,174)" stroke-width="2"/>
<path d="M563.91547,335.27863 L560.43823,351.63773" fill="transparent" stroke="rgb(176,100,176)" stroke-width="2"/>
<path d="M560.43823,351.63773 L560.43823,368.36227" fill="transparent" stroke="rgb(178,100,178)" stroke-width="2"/>
<path d="M560.43823,368.36227 L570.71796,400" fill="transparent" stroke="rgb(180,100,180)" stroke-width="2"/>
<path d="M570.71796,400 L580.5484,413.53046" fill="transparent" stroke="rgb(182,100,182)" stroke-width="2"/>
<path d="M580.5484,413.53046 L587.0228,424.72137" fill="transparent" stroke="rgb(184,100,184)" stroke-width="2"/>
<path d="M587.0228,424.72137 L607.46106,433.08362" fill="transparent" stroke="rgb(186,100,186)" stroke-width="2"/>
<path d="M607.46106,433.08362 L640,440" fill="transparent" stroke="rgb(188,100,188)" stroke-width="2"/>
<path d="M640,440 L656.63293,438.2518" fill="transparent" stroke="rgb(190,100,190)" stroke-width="2"/>
<path d="M656.63293,438.2518 L672.53894,433.08362" fill="transparent" stroke="rgb(192,100,192)" stroke-width="2"/>
<path d="M672.53894,433.08362 L687.0228,424.72137" fill="transparent" stroke="rgb(194,100,194)" stroke-width="2"/>
<path d="M687.0228,424.72137 L699.4516,413.53046" fill="transparent" stroke="rgb(196,100,196)" stroke-width="2"/>
<path d="M699.4516,413.53046 L699.4516,406.46954" fill="transparent" stroke="rgb(198,100,198)" stroke-width="2"/>
<path d="M699.4516,406.46954 L687.0228,395.27863" fill="transparent" stroke="rgb(200,100,200)" stroke-width="2"/>
<path d="M687.0228,395.27863 L672.53894,386.91635" fill="transparent" stroke="rgb(202,100,202)" stroke-width="2"/>
<path d="M672.53894,386.91635 L656.63293,381.7482" fill="transparent" stroke="rgb(204,100,204)" stroke-width="2"/>
<path d="M656.63293,381.7482 L640,380" fill="transparent" stroke="rgb(206,100,206)" stroke-width="2"/>
<path d="M640,380 L616.08453,384.72137" fill="transparent" stroke="rgb(208,100,208)" stroke-width="2"/>
<path d="M616.08453,384.72137 L609.28204,400" fill="transparent" stroke="rgb(210,100,210)" stroke-width="2"/>
<path d="M609.28204,400 L599.4516,413.53046" fill="transparent" stroke="rgb(212,100,212)" stroke-width="2"/>
<path d="M599.4516,413.53046 L592.9772,424.72137" fill="transparent" stroke="rgb(214,100,214)" stroke-width="2"/>
<path d="M592.9772,424.72137 L572.53894,433.08362" fill="transparent" stroke="rgb(216,100,216)" stroke-width="2"/>
<path d="M572.53894,433.08362 L563.91547,435.27863" fill="transparent" stroke="rgb(218,100,218)" stroke-width="2"/>
<path d="M563.91547,435.27863 L560.43823,451.63773" fill="transparent" stroke="rgb(220,100,220)" stroke-width="2"/>
<path d="M560.43823,451.63773 L560.43823,468.36227" fill="transparent" stroke="rgb(222,100,222)" stroke-width="2"/>
<path d="M560.43823,468.36227 L563.91547,484.72137" fill="transparent" stroke="rgb(224,100,224)" stroke-width="2"/>
<path d="M563.91547,484.72137 L570.71796,500" fill="transparent" stroke="rgb(226,100,226)" stroke-width="2"/>
<path d="M570.71796,500 L580.5484,513.53046" fill="transparent" stroke="rgb(228,100,228)" stroke-width="2"/>
<path d="M580.5484,513.53046 L587.0228,524.7214" fill="transparent" stroke="rgb(230,100,230)" stroke-width="2"/>
<path d="M587.0228,524.7214 L607.46106,533.0836" fill="transparent" stroke="rgb(232,100,232)" stroke-width="2"/>
<path d="M607.46106,533.0836 L623.36707,538.25183" fill="transparent" stroke="rgb(234,100,234)" stroke-width="2"/>
<path d="M623.36707,538.25183 L709.28204,420" fill="transparent" stroke="rgb(236,100,236)" stroke-width="2"/>
</svg>