<svg viewBox="0 0 1080 720" xmlns="http://www.w3.org/2000/svg">
<circle cx="740" cy="360" fill="transparent" r="5" stroke="rgb(0,0,0)" stroke-width="2"/>
<circle cx="690" cy="360" fill="transparent" r="5" stroke="rgb(0,0,0)" stroke-width="2"/>
<circle cx="750" cy="390" fill="transparent" r="5" stroke="rgb(0,0,0)" stroke-width="2"/>
<circle cx="620" cy="390" fill="transparent" r="5" stroke="rgb(0,0,0)" stroke-width="2"/>
<circle cx="730" cy="360" fill="transparent" r="5" stroke="rgb(0,0,0)" stroke-width="2"/>
<circle cx="900" cy="360" fill="transparent" r="5" stroke="rgb(0,0,0)" stroke-width="2"/>
<circle cx="640" cy="360" fill="transparent" r="5" stroke="rgb(0,0,0)" stroke-width="2"/>
<circle cx="580" cy="390" fill="transparent" r="5" stroke="rgb(0,0,0)" stroke-width="2"/>
<circle cx="910" cy="390" fill="transparent" r="5" stroke="rgb(0,0,0)" stroke-width="2"/>
<circle cx="880" cy="360" fill="transparent" r="5" stroke="rgb(0,0,0)" stroke-width="2"/>
<circle cx="660" cy="360" fill="transparent" r="5" stroke="rgb(0,0,0)" stroke-width="2"/>
<circle cx="740" cy="390" fill="transparent" r="5" stroke="rgb(0,0,0)" stroke-width="2"/>
<circle cx="650" cy="390" fill="transparent" r="5" stroke="rgb(0,0,0)" stroke-width="2"/>
<circle cx="710" cy="360" fill="transparent" r="5" stroke="rgb(0,0,0)" stroke-width="2"/>
<circle cx="580" cy="360" fill="transparent" r="5" stroke="rgb(0,0,0)" stroke-width="2"/>
<circle cx="810" cy="360" fill="transparent" r="5" stroke="rgb(0,0,0)" stroke-width="2"/>
<circle cx="590" cy="390" fill="transparent" r="5" stroke="rgb(0,0,0)" stroke-width="2"/>
<circle cx="800" cy="390" fill="transparent" r="5" stroke="rgb(0,0,0)" stroke-width="2"/>
<circle cx="930" cy="360" fill="transparent" r="5" stroke="rgb(0,0,0)" stroke-width="2"/>
<circle cx="550" cy="390" fill="transparent" r="5" stroke="rgb(0,0,0)" stroke-width="2"/>
<circle cx="540" cy="360" fill="transparent" r="5" stroke="rgb(0,0,0)" stroke-width="2"/>
<circle cx="680" cy="360" fill="transparent" r="5" stroke="rgb(0,0,0)" stroke-width="2"/>
<circle cx="760" cy="390" fill="transparent" r="5" stroke="rgb(0,0,0)" stroke-width="2"/>
<circle cx="810" cy="390" fill="transparent" r="5" stroke="rgb(0,0,0)" stroke-width="2"/>
<circle cx="640" cy="390" fill="transparent" r="5" stroke="rgb(0,0,0)" stroke-width="2"/>
<circle cx="720" cy="360" fill="transparent" r="5" stroke="rgb(0,0,0)" stroke-width="2"/>
<circle cx="940" cy="360" fill="transparent" r="5" stroke="rgb(0,0,0)" stroke-width="2"/>
<circle cx="620" cy="360" fill="transparent" r="5" stroke="rgb(0,0,0)" stroke-width="2"/>
<circle cx="800" cy="360" fill="transparent" r="5" stroke="rgb(0,0,0)" stroke-width="2"/>
<circle cx="770" cy="390" fill="transparent" r="5" stroke="rgb(0,0,0)" stroke-width="2"/>
<circle cx="630" cy="390" fill="transparent" r="5" stroke="rgb(0,0,0)" stroke-width="2"/>
<circle cx="540" cy="390" fill="transparent" r="5" stroke="rgb(0,0,0)" stroke-width="2"/>
<circle cx="780" cy="390" fill="transparent" r="5" stroke="rgb(0,0,0)" stroke-width="2"/>
<circle cx="920" cy="360" fill="transparent" r="5" stroke="rgb(0,0,0)" stroke-width="2"/>
<circle cx="870" cy="360" fill="transparent" r="5" stroke="rgb(0,0,0)" stroke-width="2"/>
<circle cx="780" cy="360" fill="transparent" r="5" stroke="rgb(0,0,0)" stroke-width="2"/>
<circle cx="570" cy="360" fill="transparent" r="5" stroke="rgb(0,0,0)" stroke-width="2"/>
<circle cx="750" cy="360" fill="transparent" r="5" stroke="rgb(0,0,0)" stroke-width="2"/>
<circle cx="760" cy="360" fill="transparent" r="5" stroke="rgb(0,0,0)" stroke-width="2"/>
<circle cx="830" cy="360" fill="transparent" r="5" stroke="rgb(0,0,0)" stroke-width="2"/>
<circle cx="630" cy="360" fill="transparent" r="5" stroke="rgb(0,0,0)" stroke-width="2"/>
<circle cx="690" cy="390" fill="transparent" r="5" stroke="rgb(0,0,0)" stroke-width="2"/>
<circle cx="560" cy="390" fill="transparent" r="5" stroke="rgb(0,0,0)" stroke-width="2"/>
<circle cx="600" cy="360" fill="transparent" r="5" stroke="rgb(0,0,0)" stroke-width="2"/>
<circle cx="600" cy="390" fill="transparent" r="5" stroke="rgb(0,0,0)" stroke-width="2"/>
<circle cx="680" cy="390" fill="transparent" r="5" stroke="rgb(0,0,0)" stroke-width="2"/>
<circle cx="610" cy="390" fill="transparent" r="5" stroke="rgb(0,0,0)" stroke-width="2"/>
<circle cx="535" cy="375" fill="transparent" r="5" stroke="rgb(0,0,0)" stroke-width="2"/>
<circle cx="830" cy="390" fill="transparent" r="5" stroke="rgb(0,0,0)" stroke-width="2"/>
<circle cx="790" cy="390" fill="transparent" r="5" stroke="rgb(0,0,0)" stroke-width="2"/>
<circle cx="945" cy="375" fill="transparent" r="5" stroke="rgb(0,0,0)" stroke-width="2"/>
<circle cx="790" cy="360" fill="transparent" r="5" stroke="rgb(0,0,0)" stroke-width="2"/>
<circle cx="940" cy="390" fill="transparent" r="5" stroke="rgb(0,0,0)" stroke-width="2"/>
<circle cx="840" cy="360" fill="transparent" r="5" stroke="rgb(0,0,0)" stroke-width="2"/>
<circle cx="820" cy="360" fill="transparent" r="5" stroke="rgb(0,0,0)" stroke-width="2"/>
<circle cx="850" cy="360" fill="transparent" r="5" stroke="rgb(0,0,0)" stroke-width="2"/>
<circle cx="890" cy="360" fill="transparent" r="5" stroke="rgb(0,0,0)" stroke-width="2"/>
<circle cx="820" cy="390" fill="transparent" r="5" stroke="rgb(0,0,0)" stroke-width="2"/>
<circle cx="720" cy="390" fill="transparent" r="5" stroke="rgb(0,0,0)" stroke-width="2"/>
<circle cx="930" cy="390" fill="transparent" r="5" stroke="rgb(0,0,0)" stroke-width="2"/>
<circle cx="850" cy="390" fill="transparent" r="5" stroke="rgb(0,0,0)" stroke-width="2"/>
<circle cx="900" cy="390" fill="transparent" r="5" stroke="rgb(0,0,0)" stroke-width="2"/>
<circle cx="560" cy="360" fill="transparent" r="5" stroke="rgb(0,0,0)" stroke-width="2"/>
<circle cx="860" cy="360" fill="transparent" r="5" stroke="rgb(0,0,0)" stroke-width="2"/>
<circle cx="670" cy="390" fill="transparent" r="5" stroke="rgb(0,0,0)" stroke-width="2"/>
<circle cx="660" cy="390" fill="transparent" r="5" stroke="rgb(0,0,0)" stroke-width="2"/>
<circle cx="700" cy="360" fill="transparent" r="5" stroke="rgb(0,0,0)" stroke-width="2"/>
<circle cx="730" cy="390" fill="transparent" r="5" stroke="rgb(0,0,0)" stroke-width="2"/>
<circle cx="870" cy="390" fill="transparent" r="5" stroke="rgb(0,0,0)" stroke-width="2"/>
<circle cx="890" cy="390" fill="transparent" r="5" stroke="rgb(0,0,0)" stroke-width="2"/>
<circle cx="910" cy="360" fill="transparent" r="5" stroke="rgb(0,0,0)" stroke-width="2"/>
<circle cx="920" cy="390" fill="transparent" r="5" stroke="rgb(0,0,0)" stroke-width="2"/>
<circle cx="610" cy="360" fill="transparent" r="5" stroke="rgb(0,0,0)" stroke-width="2"/>
<circle cx="570" cy="390" fill="transparent" r="5" stroke="rgb(0,0,0)" stroke-width="2"/>
<circle cx="650" cy="360" fill="transparent" r="5" stroke="rgb(0,0,0)" stroke-width="2"/>
<circle cx="550" cy="360" fill="transparent" r="5" stroke="rgb(0,0,0)" stroke-width="2"/>
<circle cx="710" cy="390" fill="transparent" r="5" stroke="rgb(0,0,0)" stroke-width="2"/>
<circle cx="840" cy="390" fill="transparent" r="5" stroke="rgb(0,0,0)" stroke-width="2"/>
<circle cx="700" cy="390" fill="transparent" r="5" stroke="rgb(0,0,0)" stroke-width="2"/>
<circle cx="770" cy="360" fill="transparent" r="5" stroke="rgb(0,0,0)" stroke-width="2"/>
<circle cx="860" cy="390" fill="transparent" r="5" stroke="rgb(0,0,0)" stroke-width="2"/>
<circle cx="590" cy="360" fill="transparent" r="5" stroke="rgb(0,0,0)" stroke-width="2"/>
<circle cx="880" cy="390" fill="transparent" r="5" stroke="rgb(0,0,0)" stroke-width="2"/>
<circle cx="670" cy="360" fill="transparent" r="5" stroke="rgb(0,0,0)" stroke-width="2"/>
<path d="M590,360 L580,360" fill="transparent" stroke="rgb(0,100,0)" stroke-width="2"/>
<path d="M580,360 L570,360" fill="transparent" stroke="rgb(3,100,3)" stroke-width="2"/>
<path d="M570,360 L560,360" fill="transparent" stroke="rgb(6,100,6)" stroke-width="2"/>
<path d="M560,360 L550,360" fill="transparent" stroke="rgb(9,100,9)" stroke-width="2"/>
<path d="M550,360 L540,360" fill="transparent" stroke="rgb(12,100,12)" stroke-width="2"/>
<path d="M540,360 L535,375" fill="transparent" stroke="rgb(15,100,15)" stroke-width="2"/>
<path d="M535,375 L540,390" fill="transparent" stroke="rgb(18,100,18)" stroke-width="2"/>
<path d="M540,390 L550,390" fill="transparent" stroke="rgb(21,100,21)" stroke-width="2"/>
<path d="M550,390 L560,390" fill="transparent" stroke="rgb(24,100,24)" stroke-width="2"/>
<path d="M560,390 L570,390" fill="transparent" stroke="rgb(27,100,27)" stroke-width="2"/>
<path d="M570,390 L580,390" fill="transparent" stroke="rgb(30,100,30)" stroke-width="2"/>
<path d="M580,390 L590,390" fill="transparent" stroke="rgb(33,100,33)" stroke-width="2"/>
<path d="M590,390 L600,390" fill="transparent" stroke="rgb(36,100,36)" stroke-width="2"/>
<path d="M600,390 L610,390" fill="transparent" stroke="rgb(39,100,39)" stroke-width="2"/>
<path d="M610,390 L620,390" fill="transparent" stroke="rgb(42,100,42)" stroke-width="2"/>
<path d="M620,390 L630,390" fill="transparent" stroke="rgb(45,100,45)" stroke-width="2"/>
<path d="M630,390 L640,390" fill="transparent" stroke="rgb(48,100,48)" stroke-width="2"/>
<path d="M640,390 L650,390" fill="transparent" stroke="rgb(51,100,51)" stroke-width="2"/>
<path d="M650,390 L660,390" fill="transparent" stroke="rgb(54,100,54)" stroke-width="2"/>
<path d="M660,390 L670,390" fill="transparent" stroke="rgb(57,100,57)" stroke-width="2"/>
<path d="M670,390 L680,390" fill="transparent" stroke="rgb(60,100,60)" stroke-width="2"/>
<path d="M680,390 L690,390" fill="transparent" stroke="rgb(63,100,63)" stroke-width="2"/>
<path d="M690,390 L700,390" fill="transparent" stroke="rgb(66,100,66)" stroke-width="2"/>
<path d="M700,390 L710,390" fill="transparent" stroke="rgb(69,100,69)" stroke-width="2"/>
<path d="M710,390 L720,390" fill="transparent" stroke="rgb(72,100,72)" stroke-width="2"/>
<path d="M720,390 L730,390" fill="transparent" stroke="rgb(75,100,75)" stroke-width="2"/>
<path d="M730,390 L740,390" fill="transparent" stroke="rgb(78,100,78)" stroke-width="2"/>
<path d="M740,390 L750,390" fill="transparent" stroke="rgb(81,100,81)" stroke-width="2"/>
<path d="M750,390 L760,390" fill="transparent" stroke="rgb(84,100,84)" stroke-width="2"/>
<path d="M760,390 L770,390" fill="transparent" stroke="rgb(87,100,87)" stroke-width="2"/>
<path d="M770,390 L780,390" fill="transparent" stroke="rgb(90,100,90)" stroke-width="2"/>
<path d="M780,390 L790,390" fill="transparent" stroke="rgb(93,100,93)" stroke-width="2"/>
<path d="M790,390 L800,390" fill="transparent" stroke="rgb(96,100,96)" stroke-width="2"/>
<path d="M800,390 L810,390" fill="transparent" stroke="rgb(99,100,99)" stroke-width="2"/>
<path d="M810,390 L820,390" fill="transparent" stroke="rgb(102,100,102)" stroke-width="2"/>
<path d="M820,390 L830,390" fill="transparent" stroke="rgb(105,100,105)" stroke-width="2"/>
<path d="M830,390 L840,390" fill="transparent" stroke="rgb(108,100,108)" stroke-width="2"/>
<path d="M840,390 L850,390" fill="transparent" stroke="rgb(111,100,111)" stroke-width="2"/>
<path d="M850,390 L860,390" fill="transparent" stroke="rgb(114,100,114)" stroke-width="2"/>
<path d="M860,390 L870,390" fill="transparent" stroke="rgb(117,100,117)" stroke-width="2"/>
<path d="M870,390 L880,390" fill="transparent" stroke="rgb(120,100,120)" stroke-width="2"/>
<path d="M880,390 L890,390" fill="transparent" stroke="rgb(123,100,123)" stroke-width="2"/>
<path d="M890,390 L900,390" fill="transparent" stroke="rgb(126,100,126)" stroke-width="2"/>
<path d="M900,390 L910,390" fill="transparent" stroke="rgb(129,100,129)" stroke-width="2"/>
<path d="M910,390 L920,390" fill="transparent" stroke="rgb(132,100,132)" stroke-width="2"/>
<path d="M920,390 L930,390" fill="transparent" stroke="rgb(135,100,135)" stroke-width="2"/>
<path d="M930,390 L940,390" fill="transparent" stroke="rgb(138,100,138)" stroke-width="2"/>
<path d="M940,390 L945,375" fill="transparent" stroke="rgb(141,100,141)" stroke-width="2"/>
<path d="M945,375 L940,360" fill="transparent" stroke="rgb(144,100,144)" stroke-width="2"/>
<path d="M940,360 L930,360" fill="transparent" stroke="rgb(147,100,147)" stroke-width="2"/>
<path d="M930,360 L920,360" fill="transparent" stroke="rgb(150,100,150)" stroke-width="2"/>
<path d="M920,360 L910,360" fill="transparent" stroke="rgb(153,100,153)" stroke-width="2"/>
<path d="M910,360 L900,360" fill="transparent" stroke="rgb(156,100,156)" stroke-width="2"/>
<path d="M900,360 L890,360" fill="transparent" stroke="rgb(159,100,159)" stroke-width="2"/>
<path d="M890,360 L880,360" fill="transparent" stroke="rgb(162,100,162)" stroke-width="2"/>
<path d="M880,360 L870,360" fill="transparent" stroke="rgb(165,100,165)" stroke-width="2"/>
<path d="M870,360 L860,360" fill="transparent" stroke="rgb(168,100,168)" stroke-width="2"/>
<path d="M860,360 L850,360" fill="transparent" stroke="rgb(171,100,171)" stroke-width="2"/>
<path d="M850,360 L840,360" fill="transparent" stroke="rgb(174,100,174)" stroke-width="2"/>
<path d="M840,360 L830,360" fill="transparent" stroke="rgb(177,100,177)" stroke-width="2"/>
<path d="M830,360 L820,360" fill="transparent" stroke="rgb(180,100,180)" stroke-width="2"/>
<path d="M820,360 L810,360" fill="transparent" stroke="rgb(183,100,183)" stroke-width="2"/>
<path d="M810,360 L800,360" fill="transparent" stroke="rgb(186,100,186)" stroke-width="2"/>
<path d="M800,360 L790,360" fill="transparent" stroke="rgb(189,100,189)" stroke-width="2"/>
<path d="M790,360 L780,360" fill="transparent" stroke="rgb(192,100,192)" stroke-width="2"/>
<path d="M780,360 L770,360" fill="transparent" stroke="rgb(195,100,195)" stroke-width="2"/>
<path d="M770,360 L760,360" fill="transparent" stroke="rgb(198,100,198)" stroke-width="2"/>
<path d="M760,360 L750,360" fill="transparent" stroke="rgb(201,100,201)" stroke-width="2"/>
<path d="M750,360 L740,360" fill="transparent" stroke="rgb(204,100,204)" stroke-width="2"/>
<path d="M740,360 L730,360" fill="transparent" stroke="rgb(207,100,207)" stroke-width="2"/>
<path d="M730,360 L720,360" fill="transparent" stroke="rgb(210,100,210)" stroke-width="2"/>
<path d="M720,360 L710,360" fill="transparent" stroke="rgb(213,100,213)" stroke-width="2"/>
<path d="M710,360 L700,360" fill="transparent" stroke="rgb(216,100,216)" stroke-width="2"/>
<path d="M700,360 L690,360" fill="transparent" stroke="rgb(219,100,219)" stroke-width="2"/>
<path d="M690,360 L680,360" fill="transparent" stroke="rgb(222,100,222)" stroke-width="2"/>
<path d="M680,360 L670,360" fill="transparent" stroke="rgb(225,100,225)" stroke-width="2"/>
<path d="M670,360 L660,360" fill="transparent" stroke="rgb(228,100,228)" stroke-width="2"/>
<path d="M660,360 L650,360" fill="transparent" stroke="rgb(231,100,231)" stroke-width="2"/>
<path d="M650,360 L640,360" fill="transparent" stroke="rgb(234,100,234)" stroke-width="2"/>
<path d="M640,360 L630,360" fill="transparent" stroke="rgb(237,100,237)" stroke-width="2"/>
<path d="M630,360 L620,360" fill="transparent" stroke="rgb(240,100,240)" stroke-width="2"/>
<path d="M620,360 L610,360" fill="transparent" stroke="rgb(243,100,243)" stroke-width="2"/>
<path d="M610,360 L600,360" fill="transparent" stroke="rgb(246,100,246)" stroke-width="2"/>
</svg>