<svg viewBox="0 0 1080 720" xmlns="http://www.w3.org/2000/svg">
<circle cx="492.73346" cy="293.01596" fill="transparent" r="5" stroke="rgb(0,0,0)" stroke-width="2"/>
<circle cx="354.35083" cy="450.14447" fill="transparent" r="5" stroke="rgb(0,0,0)" stroke-width="2"/>
<circle cx="574.07904" cy="547.7311" fill="transparent" r="5" stroke="rgb(0,0,0)" stroke-width="2"/>
<circle cx="710.5143" cy="521.16986" fill="transparent" r="5" stroke="rgb(0,0,0)" stroke-width="2"/>
<circle cx="596.3898" cy="431.6185" fill="transparent" r="5" stroke="rgb(0,0,0)" stroke-width="2"/>
<circle cx="483.08545" cy="452.50125" fill="transparent" r="5" stroke="rgb(0,0,0)" stroke-width="2"/>
<circle cx="521.68396" cy="387.75586" fill="transparent" r="5" stroke="rgb(0,0,0)" stroke-width="2"/>
<circle cx="658.98975" cy="279.79642" fill="transparent" r="5" stroke="rgb(0,0,0)" stroke-width="2"/>
<circle cx="811.3011" cy="502.5241" fill="transparent" r="5" stroke="rgb(0,0,0)" stroke-width="2"/>
<circle cx="317.5077" cy="529.0333" fill="transparent" r="5" stroke="rgb(0,0,0)" stroke-width="2"/>
<circle cx="709.9904" cy="514.2604" fill="transparent" r="5" stroke="rgb(0,0,0)" stroke-width="2"/>
<circle cx="775.827" cy="216.16116" fill="transparent" r="5" stroke="rgb(0,0,0)" stroke-width="2"/>
<circle cx="595.4348" cy="422.72916" fill="transparent" r="5" stroke="rgb(0,0,0)" stroke-width="2"/>
<circle cx="761.80817" cy="546.241" fill="transparent" r="5" stroke="rgb(0,0,0)" stroke-width="2"/>
<circle cx="530.4191" cy="342.48337" fill="transparent" r="5" stroke="rgb(0,0,0)" stroke-width="2"/>
<circle cx="666.7999" cy="472.7273" fill="transparent" r="5" stroke="rgb(0,0,0)" stroke-width="2"/>
<circle cx="640.0439" cy="521.2951" fill="transparent" r="5" stroke="rgb(0,0,0)" stroke-width="2"/>
<circle cx="698.5523" cy="340.7456" fill="transparent" r="5" stroke="rgb(0,0,0)" stroke-width="2"/>
<circle cx="367.62195" cy="271.7018" fill="transparent" r="5" stroke="rgb(0,0,0)" stroke-width="2"/>
<circle cx="337.1714" cy="258.29996" fill="transparent" r="5" stroke="rgb(0,0,0)" stroke-width="2"/>
<circle cx="339.22876" cy="507.74106" fill="transparent" r="5" stroke="rgb(0,0,0)" stroke-width="2"/>
<circle cx="295.0405" cy="248.95343" fill="transparent" r="5" stroke="rgb(0,0,0)" stroke-width="2"/>
<circle cx="574.9591" cy="253.1575" fill="transparent" r="5" stroke="rgb(0,0,0)" stroke-width="2"/>
<circle cx="580.89716" cy="438.1523" fill="transparent" r="5" stroke="rgb(0,0,0)" stroke-width="2"/>
<circle cx="718.19836" cy="397.03198" fill="transparent" r="5" stroke="rgb(0,0,0)" stroke-width="2"/>
<circle cx="419.61343" cy="530.5895" fill="transparent" r="5" stroke="rgb(0,0,0)" stroke-width="2"/>
<circle cx="455.3731" cy="508.2165" fill="transparent" r="5" stroke="rgb(0,0,0)" stroke-width="2"/>
<circle cx="702.92316" cy="477.46576" fill="transparent" r="5" stroke="rgb(0,0,0)" stroke-width="2"/>
<circle cx="587.01135" cy="329.11282" fill="transparent" r="5" stroke="rgb(0,0,0)" stroke-width="2"/>
<circle cx="635.9472" cy="543.2782" fill="transparent" r="5" stroke="rgb(0,0,0)" stroke-width="2"/>
<circle cx="599.8272" cy="189.28629" fill="transparent" r="5" stroke="rgb(0,0,0)" stroke-width="2"/>
<circle cx="756.691" cy="516.3144" fill="transparent" r="5" stroke="rgb(0,0,0)" stroke-width="2"/>
<circle cx="252.94171" cy="473.59982" fill="transparent" r="5" stroke="rgb(0,0,0)" stroke-width="2"/>
<circle cx="539.7991" cy="338.07233" fill="transparent" r="5" stroke="rgb(0,0,0)" stroke-width="2"/>
<circle cx="712.3892" cy="306.86673" fill="transparent" r="5" stroke="rgb(0,0,0)" stroke-width="2"/>
<circle cx="291.83054" cy="440.13223" fill="transparent" r="5" stroke="rgb(0,0,0)" stroke-width="2"/>
<circle cx="386.86987" cy="547.81726" fill="transparent" r="5" stroke="rgb(0,0,0)" stroke-width="2"/>
<circle cx="818.10535" cy="266.22824" fill="transparent" r="5" stroke="rgb(0,0,0)" stroke-width="2"/>
<circle cx="757.2189" cy="524.2949" fill="transparent" r="5" stroke="rgb(0,0,0)" stroke-width="2"/>
<circle cx="660.375" cy="475.88965" fill="transparent" r="5" stroke="rgb(0,0,0)" stroke-width="2"/>
<circle cx="406.26907" cy="246.69385" fill="transparent" r="5" stroke="rgb(0,0,0)" stroke-width="2"/>
<circle cx="392.6368" cy="419.6082" fill="transparent" r="5" stroke="rgb(0,0,0)" stroke-width="2"/>
<circle cx="368.64505" cy="385.46307" fill="transparent" r="5" stroke="rgb(0,0,0)" stroke-width="2"/>
<circle cx="594.76654" cy="514.05383" fill="transparent" r="5" stroke="rgb(0,0,0)" stroke-width="2"/>
<circle cx="548.6437" cy="495.9074" fill="transparent" r="5" stroke="rgb(0,0,0)" stroke-width="2"/>
<circle cx="425.85382" cy="550.61536" fill="transparent" r="5" stroke="rgb(0,0,0)" stroke-width="2"/>
<circle cx="816.2765" cy="310.55133" fill="transparent" r="5" stroke="rgb(0,0,0)" stroke-width="2"/>
<circle cx="779.61664" cy="338.05585" fill="transparent" r="5" stroke="rgb(0,0,0)" stroke-width="2"/>
<circle cx="688.10834" cy="483.5583" fill="transparent" r="5" stroke="rgb(0,0,0)" stroke-width="2"/>
<circle cx="522.64343" cy="234.74588" fill="transparent" r="5" stroke="rgb(0,0,0)" stroke-width="2"/>
<circle cx="594.5519" cy="431.56714" fill="transparent" r="5" stroke="rgb(0,0,0)" stroke-width="2"/>
<circle cx="355.9073" cy="365.73727" fill="transparent" r="5" stroke="rgb(0,0,0)" stroke-width="2"/>
<circle cx="556.57324" cy="464.021" fill="transparent" r="5" stroke="rgb(0,0,0)" stroke-width="2"/>
<circle cx="669.0243" cy="389.7017" fill="transparent" r="5" stroke="rgb(0,0,0)" stroke-width="2"/>
<circle cx="757.59924" cy="170.74194" fill="transparent" r="5" stroke="rgb(0,0,0)" stroke-width="2"/>
<circle cx="632.29803" cy="213.8305" fill="transparent" r="5" stroke="rgb(0,0,0)" stroke-width="2"/>
<circle cx="628.81885" cy="317.1655" fill="transparent" r="5" stroke="rgb(0,0,0)" stroke-width="2"/>
<circle cx="497.29532" cy="397.6795" fill="transparent" r="5" stroke="rgb(0,0,0)" stroke-width="2"/>
<circle cx="322.71753" cy="316.68338" fill="transparent" r="5" stroke="rgb(0,0,0)" stroke-width="2"/>
<circle cx="313.21237" cy="362.65887" fill="transparent" r="5" stroke="rgb(0,0,0)" stroke-width="2"/>
<circle cx="698.7422" cy="422.61884" fill="transparent" r="5" stroke="rgb(0,0,0)" stroke-width="2"/>
<circle cx="493.59692" cy="346.2442" fill="transparent" r="5" stroke="rgb(0,0,0)" stroke-width="2"/>
<circle cx="358.7911" cy="167.37706" fill="transparent" r="5" stroke="rgb(0,0,0)" stroke-width="2"/>
<circle cx="387.86963" cy="266.15564" fill="transparent" r="5" stroke="rgb(0,0,0)" stroke-width="2"/>
<circle cx="614.8875" cy="440.58646" fill="transparent" r="5" stroke="rgb(0,0,0)" stroke-width="2"/>
<circle cx="526.9697" cy="534.698" fill="transparent" r="5" stroke="rgb(0,0,0)" stroke-width="2"/>
<circle cx="332.33484" cy="441.41037" fill="transparent" r="5" stroke="rgb(0,0,0)" stroke-width="2"/>
<circle cx="748.5927" cy="496.61847" fill="transparent" r="5" stroke="rgb(0,0,0)" stroke-width="2"/>
<circle cx="815.79346" cy="230.58452" fill="transparent" r="5" stroke="rgb(0,0,0)" stroke-width="2"/>
<circle cx="646.5994" cy="252.56601" fill="transparent" r="5" stroke="rgb(0,0,0)" stroke-width="2"/>
<circle cx="595.5509" cy="314.91003" fill="transparent" r="5" stroke="rgb(0,0,0)" stroke-width="2"/>
<circle cx="350.9378" cy="464.28564" fill="transparent" r="5" stroke="rgb(0,0,0)" stroke-width="2"/>
<circle cx="382.57663" cy="486.80032" fill="transparent" r="5" stroke="rgb(0,0,0)" stroke-width="2"/>
<circle cx="347.31897" cy="534.52295" fill="transparent" r="5" stroke="rgb(0,0,0)" stroke-width="2"/>
<circle cx="729.387" cy="355.5348" fill="transparent" r="5" stroke="rgb(0,0,0)" stroke-width="2"/>
<circle cx="491.64557" cy="369.0914" fill="transparent" r="5" stroke="rgb(0,0,0)" stroke-width="2"/>
<circle cx="328.57086" cy="387.77042" fill="transparent" r="5" stroke="rgb(0,0,0)" stroke-width="2"/>
<circle cx="338.51486" cy="515.27484" fill="transparent" r="5" stroke="rgb(0,0,0)" stroke-width="2"/>
<circle cx="384.34827" cy="221.84819" fill="transparent" r="5" stroke="rgb(0,0,0)" stroke-width="2"/>
<circle cx="593.4365" cy="485.6832" fill="transparent" r="5" stroke="rgb(0,0,0)" stroke-width="2"/>
<circle cx="543.1521" cy="387.10388" fill="transparent" r="5" stroke="rgb(0,0,0)" stroke-width="2"/>
<circle cx="836.91187" cy="385.81158" fill="transparent" r="5" stroke="rgb(0,0,0)" stroke-width="2"/>
<circle cx="324.88605" cy="480.74066" fill="transparent" r="5" stroke="rgb(0,0,0)" stroke-width="2"/>
<circle cx="745.7179" cy="335.0235" fill="transparent" r="5" stroke="rgb(0,0,0)" stroke-width="2"/>
<circle cx="405.01498" cy="492.945" fill="transparent" r="5" stroke="rgb(0,0,0)" stroke-width="2"/>
<circle cx="413.4311" cy="466.96497" fill="transparent" r="5" stroke="rgb(0,0,0)" stroke-width="2"/>
<circle cx="350.8648" cy="220.9215" fill="transparent" r="5" stroke="rgb(0,0,0)" stroke-width="2"/>
<circle cx="796.47595" cy="313.40857" fill="transparent" r="5" stroke="rgb(0,0,0)" stroke-width="2"/>
<circle cx="255.87097" cy="467.2526" fill="transparent" r="5" stroke="rgb(0,0,0)" stroke-width="2"/>
<circle cx="299.75064" cy="539.3349" fill="transparent" r="5" stroke="rgb(0,0,0)" stroke-width="2"/>
<circle cx="764.59937" cy="325.2015" fill="transparent" r="5" stroke="rgb(0,0,0)" stroke-width="2"/>
<circle cx="670.85486" cy="555.69507" fill="transparent" r="5" stroke="rgb(0,0,0)" stroke-width="2"/>
<circle cx="608.9108" cy="277.87665" fill="transparent" r="5" stroke="rgb(0,0,0)" stroke-width="2"/>
<circle cx="535.56506" cy="393.1649" fill="transparent" r="5" stroke="rgb(0,0,0)" stroke-width="2"/>
<circle cx="512.0881" cy="408.32675" fill="transparent" r="5" stroke="rgb(0,0,0)" stroke-width="2"/>
<circle cx="675.7812" cy="346.94656" fill="transparent" r="5" stroke="rgb(0,0,0)" stroke-width="2"/>
<circle cx="666.90405" cy="279.2667" fill="transparent" r="5" stroke="rgb(0,0,0)" stroke-width="2"/>
<circle cx="597.55536" cy="424.41736" fill="transparent" r="5" stroke="rgb(0,0,0)" stroke-width="2"/>
<circle cx="681.4335" cy="353.9769" fill="transparent" r="5" stroke="rgb(0,0,0)" stroke-width="2"/>
<circle cx="271.26086" cy="503.2765" fill="transparent" r="5" stroke="rgb(0,0,0)" stroke-width="2"/>
<path d="M521.68396,387.75586 L535.56506,393.1649" fill="transparent" stroke="rgb(0,100,0)" stroke-width="2"/>
<path d="M535.56506,393.1649 L543.1521,387.10388" fill="transparent" stroke="rgb(2,100,2)" stroke-width="2"/>
<path d="M543.1521,387.10388 L530.4191,342.48337" fill="transparent" stroke="rgb(4,100,4)" stroke-width="2"/>
<path d="M530.4191,342.48337 L539.7991,338.07233" fill="transparent" stroke="rgb(6,100,6)" stroke-width="2"/>
<path d="M539.7991,338.07233 L587.01135,329.11282" fill="transparent" stroke="rgb(8,100,8)" stroke-width="2"/>
<path d="M587.01135,329.11282 L595.5509,314.91003" fill="transparent" stroke="rgb(10,100,10)" stroke-width="2"/>
<path d="M595.5509,314.91003 L628.81885,317.1655" fill="transparent" stroke="rgb(12,100,12)" stroke-width="2"/>
<path d="M628.81885,317.1655 L658.98975,279.79642" fill="transparent" stroke="rgb(14,100,14)" stroke-width="2"/>
<path d="M658.98975,279.79642 L666.90405,279.2667" fill="transparent" stroke="rgb(16,100,16)" stroke-width="2"/>
<path d="M666.90405,279.2667 L712.3892,306.86673" fill="transparent" stroke="rgb(18,100,18)" stroke-width="2"/>
<path d="M712.3892,306.86673 L698.5523,340.7456" fill="transparent" stroke="rgb(20,100,20)" stroke-width="2"/>
<path d="M698.5523,340.7456 L681.4335,353.9769" fill="transparent" stroke="rgb(22,100,22)" stroke-width="2"/>
<path d="M681.4335,353.9769 L675.7812,346.94656" fill="transparent" stroke="rgb(24,100,24)" stroke-width="2"/>
<path d="M675.7812,346.94656 L608.9108,277.87665" fill="transparent" stroke="rgb(26,100,26)" stroke-width="2"/>
<path d="M608.9108,277.87665 L574.9591,253.1575" fill="transparent" stroke="rgb(28,100,28)" stroke-width="2"/>
<path d="M574.9591,253.1575 L522.64343,234.74588" fill="transparent" stroke="rgb(30,100,30)" stroke-width="2"/>
<path d="M522.64343,234.74588 L492.73346,293.01596" fill="transparent" stroke="rgb(32,100,32)" stroke-width="2"/>
<path d="M492.73346,293.01596 L493.59692,346.2442" fill="transparent" stroke="rgb(34,100,34)" stroke-width="2"/>
<path d="M493.59692,346.2442 L491.64557,369.0914" fill="transparent" stroke="rgb(36,100,36)" stroke-width="2"/>
<path d="M491.64557,369.0914 L497.29532,397.6795" fill="transparent" stroke="rgb(38,100,38)" stroke-width="2"/>
<path d="M497.29532,397.6795 L512.0881,408.32675" fill="transparent" stroke="rgb(40,100,40)" stroke-width="2"/>
<path d="M512.0881,408.32675 L483.08545,452.50125" fill="transparent" stroke="rgb(42,100,42)" stroke-width="2"/>
<path d="M483.08545,452.50125 L455.3731,508.2165" fill="transparent" stroke="rgb(44,100,44)" stroke-width="2"/>
<path d="M455.3731,508.2165 L419.61343,530.5895" fill="transparent" stroke="rgb(46,100,46)" stroke-width="2"/>
<path d="M419.61343,530.5895 L425.85382,550.61536" fill="transparent" stroke="rgb(48,100,48)" stroke-width="2"/>
<path d="M425.85382,550.61536 L526.9697,534.698" fill="transparent" stroke="rgb(50,100,50)" stroke-width="2"/>
<path d="M526.9697,534.698 L548.6437,495.9074" fill="transparent" stroke="rgb(52,100,52)" stroke-width="2"/>
<path d="M548.6437,495.9074 L556.57324,464.021" fill="transparent" stroke="rgb(54,100,54)" stroke-width="2"/>
<path d="M556.57324,464.021 L580.89716,438.1523" fill="transparent" stroke="rgb(56,100,56)" stroke-width="2"/>
<path d="M580.89716,438.1523 L594.5519,431.56714" fill="transparent" stroke="rgb(58,100,58)" stroke-width="2"/>
<path d="M594.5519,431.56714 L596.3898,431.6185" fill="transparent" stroke="rgb(60,100,60)" stroke-width="2"/>
<path d="M596.3898,431.6185 L597.55536,424.41736" fill="transparent" stroke="rgb(62,100,62)" stroke-width="2"/>
<path d="M597.55536,424.41736 L595.4348,422.72916" fill="transparent" stroke="rgb(64,100,64)" stroke-width="2"/>
<path d="M595.4348,422.72916 L646.5994,252.56601" fill="transparent" stroke="rgb(66,100,66)" stroke-width="2"/>
<path d="M646.5994,252.56601 L632.29803,213.8305" fill="transparent" stroke="rgb(68,100,68)" stroke-width="2"/>
<path d="M632.29803,213.8305 L599.8272,189.28629" fill="transparent" stroke="rgb(70,100,70)" stroke-width="2"/>
<path d="M599.8272,189.28629 L406.26907,246.69385" fill="transparent" stroke="rgb(72,100,72)" stroke-width="2"/>
<path d="M406.26907,246.69385 L387.86963,266.15564" fill="transparent" stroke="rgb(74,100,74)" stroke-width="2"/>
<path d="M387.86963,266.15564 L367.62195,271.7018" fill="transparent" stroke="rgb(76,100,76)" stroke-width="2"/>
<path d="M367.62195,271.7018 L337.1714,258.29996" fill="transparent" stroke="rgb(78,100,78)" stroke-width="2"/>
<path d="M337.1714,258.29996 L350.8648,220.9215" fill="transparent" stroke="rgb(80,100,80)" stroke-width="2"/>
<path d="M350.8648,220.9215 L384.34827,221.84819" fill="transparent" stroke="rgb(82,100,82)" stroke-width="2"/>
<path d="M384.34827,221.84819 L392.6368,419.6082" fill="transparent" stroke="rgb(84,100,84)" stroke-width="2"/>
<path d="M392.6368,419.6082 L354.35083,450.14447" fill="transparent" stroke="rgb(86,100,86)" stroke-width="2"/>
<path d="M354.35083,450.14447 L350.9378,464.28564" fill="transparent" stroke="rgb(88,100,88)" stroke-width="2"/>
<path d="M350.9378,464.28564 L324.88605,480.74066" fill="transparent" stroke="rgb(90,100,90)" stroke-width="2"/>
<path d="M324.88605,480.74066 L339.22876,507.74106" fill="transparent" stroke="rgb(92,100,92)" stroke-width="2"/>
<path d="M339.22876,507.74106 L338.51486,515.27484" fill="transparent" stroke="rgb(94,100,94)" stroke-width="2"/>
<path d="M338.51486,515.27484 L347.31897,534.52295" fill="transparent" stroke="rgb(96,100,96)" stroke-width="2"/>
<path d="M347.31897,534.52295 L386.86987,547.81726" fill="transparent" stroke="rgb(98,100,98)" stroke-width="2"/>
<path d="M386.86987,547.81726 L574.07904,547.7311" fill="transparent" stroke="rgb(100,100,100)" stroke-width="2"/>
<path d="M574.07904,547.7311 L594.76654,514.05383" fill="transparent" stroke="rgb(102,100,102)" stroke-width="2"/>
<path d="M594.76654,514.05383 L593.4365,485.6832" fill="transparent" stroke="rgb(104,100,104)" stroke-width="2"/>
<path d="M593.4365,485.6832 L614.8875,440.58646" fill="transparent" stroke="rgb(106,100,106)" stroke-width="2"/>
<path d="M614.8875,440.58646 L669.0243,389.7017" fill="transparent" stroke="rgb(108,100,108)" stroke-width="2"/>
<path d="M669.0243,389.7017 L718.19836,397.03198" fill="transparent" stroke="rgb(110,100,110)" stroke-width="2"/>
<path d="M718.19836,397.03198 L729.387,355.5348" fill="transparent" stroke="rgb(112,100,112)" stroke-width="2"/>
<path d="M729.387,355.5348 L745.7179,335.0235" fill="transparent" stroke="rgb(114,100,114)" stroke-width="2"/>
<path d="M745.7179,335.0235 L764.59937,325.2015" fill="transparent" stroke="rgb(116,100,116)" stroke-width="2"/>
<path d="M764.59937,325.2015 L779.61664,338.05585" fill="transparent" stroke="rgb(118,100,118)" stroke-width="2"/>
<path d="M779.61664,338.05585 L816.2765,310.55133" fill="transparent" stroke="rgb(120,100,120)" stroke-width="2"/>
<path d="M816.2765,310.55133 L818.10535,266.22824" fill="transparent" stroke="rgb(122,100,122)" stroke-width="2"/>
<path d="M818.10535,266.22824 L815.79346,230.58452" fill="transparent" stroke="rgb(124,100,124)" stroke-width="2"/>
<path d="M815.79346,230.58452 L775.827,216.16116" fill="transparent" stroke="rgb(126,100,126)" stroke-width="2"/>
<path d="M775.827,216.16116 L757.59924,170.74194" fill="transparent" stroke="rgb(128,100,128)" stroke-width="2"/>
<path d="M757.59924,170.74194 L358.7911,167.37706" fill="transparent" stroke="rgb(130,100,130)" stroke-width="2"/>
<path d="M358.7911,167.37706 L295.0405,248.95343" fill="transparent" stroke="rgb(132,100,132)" stroke-width="2"/>
<path d="M295.0405,248.95343 L322.71753,316.68338" fill="transparent" stroke="rgb(134,100,134)" stroke-width="2"/>
<path d="M322.71753,316.68338 L313.21237,362.65887" fill="transparent" stroke="rgb(136,100,136)" stroke-width="2"/>
<path d="M313.21237,362.65887 L328.57086,387.77042" fill="transparent" stroke="rgb(138,100,138)" stroke-width="2"/>
<path d="M328.57086,387.77042 L368.64505,385.46307" fill="transparent" stroke="rgb(140,100,140)" stroke-width="2"/>
<path d="M368.64505,385.46307 L413.4311,466.96497" fill="transparent" stroke="rgb(142,100,142)" stroke-width="2"/>
<path d="M413.4311,466.96497 L405.01498,492.945" fill="transparent" stroke="rgb(144,100,144)" stroke-width="2"/>
<path d="M405.01498,492.945 L382.57663,486.80032" fill="transparent" stroke="rgb(146,100,146)" stroke-width="2"/>
<path d="M382.57663,486.80032 L332.33484,441.41037" fill="transparent" stroke="rgb(148,100,148)" stroke-width="2"/>
<path d="M332.33484,441.41037 L291.83054,440.13223" fill="transparent" stroke="rgb(150,100,150)" stroke-width="2"/>
<path d="M291.83054,440.13223 L255.87097,467.2526" fill="transparent" stroke="rgb(152,100,152)" stroke-width="2"/>
<path d="M255.87097,467.2526 L252.94171,473.59982" fill="transparent" stroke="rgb(154,100,154)" stroke-width="2"/>
<path d="M252.94171,473.59982 L271.26086,503.2765" fill="transparent" stroke="rgb(156,100,156)" stroke-width="2"/>
<path d="M271.26086,503.2765 L299.75064,539.3349" fill="transparent" stroke="rgb(158,100,158)" stroke-width="2"/>
<path d="M299.75064,539.3349 L317.5077,529.0333" fill="transparent" stroke="rgb(160,100,160)" stroke-width="2"/>
<path d="M317.5077,529.0333 L355.9073,365.73727" fill="transparent" stroke="rgb(162,100,162)" stroke-width="2"/>
<path d="M355.9073,365.73727 L698.7422,422.61884" fill="transparent" stroke="rgb(164,100,164)" stroke-width="2"/>
<path d="M698.7422,422.61884 L702.92316,477.46576" fill="transparent" stroke="rgb(166,100,166)" stroke-width="2"/>
<path d="M702.92316,477.46576 L748.5927,496.61847" fill="transparent" stroke="rgb(168,100,168)" stroke-width="2"/>
<path d="M748.5927,496.61847 L756.691,516.3144" fill="transparent" stroke="rgb(170,100,170)" stroke-width="2"/>
<path d="M756.691,516.3144 L757.2189,524.2949" fill="transparent" stroke="rgb(172,100,172)" stroke-width="2"/>
<path d="M757.2189,524.2949 L670.85486,555.69507" fill="transparent" stroke="rgb(174,100,174)" stroke-width="2"/>
<path d="M670.85486,555.69507 L635.9472,543.2782" fill="transparent" stroke="rgb(176,100,176)" stroke-width="2"/>
<path d="M635.9472,543.2782 L640.0439,521.2951" fill="transparent" stroke="rgb(178,100,178)" stroke-width="2"/>
<path d="M640.0439,521.2951 L660.375,475.88965" fill="transparent" stroke="rgb(180,100,180)" stroke-width="2"/>
<path d="M660.375,475.88965 L666.7999,472.7273" fill="transparent" stroke="rgb(182,100,182)" stroke-width="2"/>
<path d="M666.7999,472.7273 L688.10834,483.5583" fill="transparent" stroke="rgb(184,100,184)" stroke-width="2"/>
<path d="M688.10834,483.5583 L709.9904,514.2604" fill="transparent" stroke="rgb(186,100,186)" stroke-width="2"/>
<path d="M709.9904,514.2604 L710.5143,521.16986" fill="transparent" stroke="rgb(188,100,188)" stroke-width="2"/>
<path d="M710.5143,521.16986 L761.80817,546.241" fill="transparent" stroke="rgb(190,100,190)" stroke-width="2"/>
<path d="M761.80817,546.241 L811.3011,502.5241" fill="transparent" stroke="rgb(192,100,192)" stroke-width="2"/>
<path d="M811.3011,502.5241 L836.91187,385.81158" fill="transparent" stroke="rgb(194,100,194)" stroke-width="2"/>
<path d="M836.91187,385.81158 L796.47595,313.40857" fill="transparent" stroke="rgb(196,100,196)" stroke-width="2"/>
</svg>