<svg viewBox="0 0 1080 720" xmlns="http://www.w3.org/2000/svg">
<circle cx="258.321" cy="172.28207" fill="transparent" r="5" stroke="rgb(0,0,0)" stroke-width="2"/>
<circle cx="779.6395" cy="439.49115" fill="transparent" r="5" stroke="rgb(0,0,0)" stroke-width="2"/>
<circle cx="281.1314" cy="526.6692" fill="transparent" r="5" stroke="rgb(0,0,0)" stroke-width="2"/>
<circle cx="458.61563" cy="392.36832" fill="transparent" r="5" stroke="rgb(0,0,0)" stroke-width="2"/>
<circle cx="259.99185" cy="371.65778" fill="transparent" r="5" stroke="rgb(0,0,0)" stroke-width="2"/>
<circle cx="255.4524" cy="299.84503" fill="transparent" r="5" stroke="rgb(0,0,0)" stroke-width="2"/>
<circle cx="508.4514" cy="304.7761" fill="transparent" r="5" stroke="rgb(0,0,0)" stroke-width="2"/>
<circle cx="602.36664" cy="410.71393" fill="transparent" r="5" stroke="rgb(0,0,0)" stroke-width="2"/>
<circle cx="444.3782" cy="437.46854" fill="transparent" r="5" stroke="rgb(0,0,0)" stroke-width="2"/>
<circle cx="702.4932" cy="275.42596" fill="transparent" r="5" stroke="rgb(0,0,0)" stroke-width="2"/>
<circle cx="392.97653" cy="193.77988" fill="transparent" r="5" stroke="rgb(0,0,0)" stroke-width="2"/>
<circle cx="749.545" cy="454.26706" fill="transparent" r="5" stroke="rgb(0,0,0)" stroke-width="2"/>
<circle cx="481.3158" cy="283.0111" fill="transparent" r="5" stroke="rgb(0,0,0)" stroke-width="2"/>
<circle cx="465.3606" cy="385.54288" fill="transparent" r="5" stroke="rgb(0,0,0)" stroke-width="2"/>
<circle cx="682.76556" cy="241.31757" fill="transparent" r="5" stroke="rgb(0,0,0)" stroke-width="2"/>
<circle cx="591.41766" cy="506.41772" fill="transparent" r="5" stroke="rgb(0,0,0)" stroke-width="2"/>
<circle cx="803.2367" cy="215.70691" fill="transparent" r="5" stroke="rgb(0,0,0)" stroke-width="2"/>
<circle cx="531.0631" cy="373.54385" fill="transparent" r="5" stroke="rgb(0,0,0)" stroke-width="2"/>
<circle cx="630.5846" cy="195.78159" fill="transparent" r="5" stroke="rgb(0,0,0)" stroke-width="2"/>
<circle cx="453.54242" cy="465.83636" fill="transparent" r="5" stroke="rgb(0,0,0)" stroke-width="2"/>
<circle cx="261.5902" cy="248.08594" fill="transparent" r="5" stroke="rgb(0,0,0)" stroke-width="2"/>
<circle cx="681.51306" cy="362.82114" fill="transparent" r="5" stroke="rgb(0,0,0)" stroke-width="2"/>
<circle cx="490.5526" cy="533.21075" fill="transparent" r="5" stroke="rgb(0,0,0)" stroke-width="2"/>
<circle cx="471.5538" cy="497.17896" fill="transparent" r="5" stroke="rgb(0,0,0)" stroke-width="2"/>
<circle cx="457.82648" cy="479.46555" fill="transparent" r="5" stroke="rgb(0,0,0)" stroke-width="2"/>
<circle cx="403.21295" cy="439.5017" fill="transparent" r="5" stroke="rgb(0,0,0)" stroke-width="2"/>
<circle cx="603.54156" cy="415.14023" fill="transparent" r="5" stroke="rgb(0,0,0)" stroke-width="2"/>
<circle cx="646.03345" cy="429.75488" fill="transparent" r="5" stroke="rgb(0,0,0)" stroke-width="2"/>
<circle cx="587.0405" cy="501.20654" fill="transparent" r="5" stroke="rgb(0,0,0)" stroke-width="2"/>
<circle cx="570.3668" cy="192.42677" fill="transparent" r="5" stroke="rgb(0,0,0)" stroke-width="2"/>
<circle cx="305.28873" cy="197.2254" fill="transparent" r="5" stroke="rgb(0,0,0)" stroke-width="2"/>
<circle cx="565.09814" cy="395.20554" fill="transparent" r="5" stroke="rgb(0,0,0)" stroke-width="2"/>
<circle cx="656.70264" cy="492.02197" fill="transparent" r="5" stroke="rgb(0,0,0)" stroke-width="2"/>
<circle cx="509.00858" cy="546.80707" fill="transparent" r="5" stroke="rgb(0,0,0)" stroke-width="2"/>
<circle cx="469.81647" cy="433.73834" fill="transparent" r="5" stroke="rgb(0,0,0)" stroke-width="2"/>
<circle cx="337.78156" cy="181.26413" fill="transparent" r="5" stroke="rgb(0,0,0)" stroke-width="2"/>
<circle cx="316.96002" cy="531.55835" fill="transparent" r="5" stroke="rgb(0,0,0)" stroke-width="2"/>
<circle cx="435.21844" cy="518.21204" fill="transparent" r="5" stroke="rgb(0,0,0)" stroke-width="2"/>
<circle cx="567.7063" cy="529.2842" fill="transparent" r="5" stroke="rgb(0,0,0)" stroke-width="2"/>
<circle cx="711.5956" cy="495.521" fill="transparent" r="5" stroke="rgb(0,0,0)" stroke-width="2"/>
<circle cx="482.73376" cy="244.26242" fill="transparent" r="5" stroke="rgb(0,0,0)" stroke-width="2"/>
<circle cx="253.97595" cy="304.0448" fill="transparent" r="5" stroke="rgb(0,0,0)" stroke-width="2"/>
<circle cx="325.6377" cy="166.73482" fill="transparent" r="5" stroke="rgb(0,0,0)" stroke-width="2"/>
<circle cx="632.63995" cy="382.21603" fill="transparent" r="5" stroke="rgb(0,0,0)" stroke-width="2"/>
<circle cx="423.1682" cy="168.61945" fill="transparent" r="5" stroke="rgb(0,0,0)" stroke-width="2"/>
<circle cx="288.34332" cy="164.81004" fill="transparent" r="5" stroke="rgb(0,0,0)" stroke-width="2"/>
<circle cx="304.90057" cy="407.8103" fill="transparent" r="5" stroke="rgb(0,0,0)" stroke-width="2"/>
<circle cx="362.31406" cy="518.26587" fill="transparent" r="5" stroke="rgb(0,0,0)" stroke-width="2"/>
<circle cx="279.5222" cy="163.04446" fill="transparent" r="5" stroke="rgb(0,0,0)" stroke-width="2"/>
<circle cx="793.53485" cy="398.01498" fill="transparent" r="5" stroke="rgb(0,0,0)" stroke-width="2"/>
<circle cx="495.33008" cy="530.088" fill="transparent" r="5" stroke="rgb(0,0,0)" stroke-width="2"/>
<circle cx="566.45105" cy="167.18665" fill="transparent" r="5" stroke="rgb(0,0,0)" stroke-width="2"/>
<circle cx="585.12366" cy="391.74023" fill="transparent" r="5" stroke="rgb(0,0,0)" stroke-width="2"/>
<circle cx="578.6547" cy="548.6085" fill="transparent" r="5" stroke="rgb(0,0,0)" stroke-width="2"/>
<circle cx="784.2285" cy="479.1925" fill="transparent" r="5" stroke="rgb(0,0,0)" stroke-width="2"/>
<circle cx="823.9899" cy="258.13354" fill="transparent" r="5" stroke="rgb(0,0,0)" stroke-width="2"/>
<circle cx="292.65887" cy="199.72237" fill="transparent" r="5" stroke="rgb(0,0,0)" stroke-width="2"/>
<circle cx="807.84595" cy="487.62747" fill="transparent" r="5" stroke="rgb(0,0,0)" stroke-width="2"/>
<circle cx="576.5998" cy="507.88535" fill="transparent" r="5" stroke="rgb(0,0,0)" stroke-width="2"/>
<circle cx="498.73697" cy="215.88179" fill="transparent" r="5" stroke="rgb(0,0,0)" stroke-width="2"/>
<path d="M567.7063,529.2842 L591.41766,506.41772" fill="transparent" stroke="rgb(0,100,0)" stroke-width="2"/>
<path d="M591.41766,506.41772 L587.0405,501.20654" fill="transparent" stroke="rgb(4,100,4)" stroke-width="2"/>
<path d="M587.0405,501.20654 L576.5998,507.88535" fill="transparent" stroke="rgb(8,100,8)" stroke-width="2"/>
<path d="M576.5998,507.88535 L509.00858,546.80707" fill="transparent" stroke="rgb(12,100,12)" stroke-width="2"/>
<path d="M509.00858,546.80707 L495.33008,530.088" fill="transparent" stroke="rgb(16,100,16)" stroke-width="2"/>
<path d="M495.33008,530.088 L490.5526,533.21075" fill="transparent" stroke="rgb(20,100,20)" stroke-width="2"/>
<path d="M490.5526,533.21075 L435.21844,518.21204" fill="transparent" stroke="rgb(24,100,24)" stroke-width="2"/>
<path d="M435.21844,518.21204 L362.31406,518.26587" fill="transparent" stroke="rgb(28,100,28)" stroke-width="2"/>
<path d="M362.31406,518.26587 L316.96002,531.55835" fill="transparent" stroke="rgb(32,100,32)" stroke-width="2"/>
<path d="M316.96002,531.55835 L281.1314,526.6692" fill="transparent" stroke="rgb(36,100,36)" stroke-width="2"/>
<path d="M281.1314,526.6692 L259.99185,371.65778" fill="transparent" stroke="rgb(40,100,40)" stroke-width="2"/>
<path d="M259.99185,371.65778 L253.97595,304.0448" fill="transparent" stroke="rgb(44,100,44)" stroke-width="2"/>
<path d="M253.97595,304.0448 L255.4524,299.84503" fill="transparent" stroke="rgb(48,100,48)" stroke-width="2"/>
<path d="M255.4524,299.84503 L261.5902,248.08594" fill="transparent" stroke="rgb(52,100,52)" stroke-width="2"/>
<path d="M261.5902,248.08594 L292.65887,199.72237" fill="transparent" stroke="rgb(56,100,56)" stroke-width="2"/>
<path d="M292.65887,199.72237 L305.28873,197.2254" fill="transparent" stroke="rgb(60,100,60)" stroke-width="2"/>
<path d="M305.28873,197.2254 L337.78156,181.26413" fill="transparent" stroke="rgb(64,100,64)" stroke-width="2"/>
<path d="M337.78156,181.26413 L392.97653,193.77988" fill="transparent" stroke="rgb(68,100,68)" stroke-width="2"/>
<path d="M392.97653,193.77988 L423.1682,168.61945" fill="transparent" stroke="rgb(72,100,72)" stroke-width="2"/>
<path d="M423.1682,168.61945 L498.73697,215.88179" fill="transparent" stroke="rgb(76,100,76)" stroke-width="2"/>
<path d="M498.73697,215.88179 L482.73376,244.26242" fill="transparent" stroke="rgb(80,100,80)" stroke-width="2"/>
<path d="M482.73376,244.26242 L481.3158,283.0111" fill="transparent" stroke="rgb(84,100,84)" stroke-width="2"/>
<path d="M481.3158,283.0111 L508.4514,304.7761" fill="transparent" stroke="rgb(88,100,88)" stroke-width="2"/>
<path d="M508.4514,304.7761 L531.0631,373.54385" fill="transparent" stroke="rgb(92,100,92)" stroke-width="2"/>
<path d="M531.0631,373.54385 L565.09814,395.20554" fill="transparent" stroke="rgb(96,100,96)" stroke-width="2"/>
<path d="M565.09814,395.20554 L585.12366,391.74023" fill="transparent" stroke="rgb(100,100,100)" stroke-width="2"/>
<path d="M585.12366,391.74023 L602.36664,410.71393" fill="transparent" stroke="rgb(104,100,104)" stroke-width="2"/>
<path d="M602.36664,410.71393 L603.54156,415.14023" fill="transparent" stroke="rgb(108,100,108)" stroke-width="2"/>
<path d="M603.54156,415.14023 L646.03345,429.75488" fill="transparent" stroke="rgb(112,100,112)" stroke-width="2"/>
<path d="M646.03345,429.75488 L656.70264,492.02197" fill="transparent" stroke="rgb(116,100,116)" stroke-width="2"/>
<path d="M656.70264,492.02197 L711.5956,495.521" fill="transparent" stroke="rgb(120,100,120)" stroke-width="2"/>
<path d="M711.5956,495.521 L749.545,454.26706" fill="transparent" stroke="rgb(124,100,124)" stroke-width="2"/>
<path d="M749.545,454.26706 L779.6395,439.49115" fill="transparent" stroke="rgb(128,100,128)" stroke-width="2"/>
<path d="M779.6395,439.49115 L793.53485,398.01498" fill="transparent" stroke="rgb(132,100,132)" stroke-width="2"/>
<path d="M793.53485,398.01498 L823.9899,258.13354" fill="transparent" stroke="rgb(136,100,136)" stroke-width="2"/>
<path d="M823.9899,258.13354 L803.2367,215.70691" fill="transparent" stroke="rgb(140,100,140)" stroke-width="2"/>
<path d="M803.2367,215.70691 L682.76556,241.31757" fill="transparent" stroke="rgb(144,100,144)" stroke-width="2"/>
<path d="M682.76556,241.31757 L465.3606,385.54288" fill="transparent" stroke="rgb(148,100,148)" stroke-width="2"/>
<path d="M465.3606,385.54288 L458.61563,392.36832" fill="transparent" stroke="rgb(152,100,152)" stroke-width="2"/>
<path d="M458.61563,392.36832 L444.3782,437.46854" fill="transparent" stroke="rgb(156,100,156)" stroke-width="2"/>
<path d="M444.3782,437.46854 L403.21295,439.5017" fill="transparent" stroke="rgb(160,100,160)" stroke-width="2"/>
<path d="M403.21295,439.5017 L304.90057,407.8103" fill="transparent" stroke="rgb(164,100,164)" stroke-width="2"/>
<path d="M304.90057,407.8103 L258.321,172.28207" fill="transparent" stroke="rgb(168,100,168)" stroke-width="2"/>
<path d="M258.321,172.28207 L279.5222,163.04446" fill="transparent" stroke="rgb(172,100,172)" stroke-width="2"/>
<path d="M279.5222,163.04446 L288.34332,164.81004" fill="transparent" stroke="rgb(176,100,176)" stroke-width="2"/>
<path d="M288.34332,164.81004 L325.6377,166.73482" fill="transparent" stroke="rgb(180,100,180)" stroke-width="2"/>
<path d="M325.6377,166.73482 L566.45105,167.18665" fill="transparent" stroke="rgb(184,100,184)" stroke-width="2"/>
<path d="M566.45105,167.18665 L570.3668,192.42677" fill="transparent" stroke="rgb(188,100,188)" stroke-width="2"/>
<path d="M570.3668,192.42677 L630.5846,195.78159" fill="transparent" stroke="rgb(192,100,192)" stroke-width="2"/>
<path d="M630.5846,195.78159 L702.4932,275.42596" fill="transparent" stroke="rgb(196,100,196)" stroke-width="2"/>
<path d="M702.4932,275.42596 L681.51306,362.82114" fill="transparent" stroke="rgb(200,100,200)" stroke-width="2"/>
<path d="M681.51306,362.82114 L632.63995,382.21603" fill="transparent" stroke="rgb(204,100,204)" stroke-width="2"/>
<path d="M632.63995,382.21603 L469.81647,433.73834" fill="transparent" stroke="rgb(208,100,208)" stroke-width="2"/>
<path d="M469.81647,433.73834 L453.54242,465.83636" fill="transparent" stroke="rgb(212,100,212)" stroke-width="2"/>
<path d="M453.54242,465.83636 L457.82648,479.46555" fill="transparent" stroke="rgb(216,100,216)" stroke-width="2"/>
<path d="M457.82648,479.46555 L471.5538,497.17896" fill="transparent" stroke="rgb(220,100,220)" stroke-width="2"/>
<path d="M471.5538,497.17896 L578.6547,548.6085" fill="transparent" stroke="rgb(224,100,224)" stroke-width="2"/>
<path d="M578.6547,548.6085 L784.2285,479.1925" fill="transparent" stroke="rgb(228,100,228)" stroke-width="2"/>
<path d="M784.2285,479.1925 L807.84595,487.62747" fill="transparent" stroke="rgb(232,100,232)" stroke-width="2"/>
</svg>